<svg width="73" height="95" viewBox="0 0 73 95" fill="none" xmlns="http://www.w3.org/2000/svg">
<path d="M0 8.90864e-06H38.3559V6.33231H0V8.90864e-06Z" fill="#9C6262"/>
<path d="M0 55.5924H18.7601V61.9247H0V55.5924Z" fill="#9C6262"/>
<path d="M0 80.095H18.7601V86.4273H0V80.095Z" fill="#9C6262"/>
<path d="M0 85.8962V2.99596H6.18643V85.8962H0Z" fill="#9C6262"/>
<path d="M43.3049 86.1193V3.51221e-06H49.4914V86.1193H43.3049Z" fill="#9C6262"/>
<path d="M54.4407 86.1194V2.17398e-05H60.6271V86.1194H54.4407Z" fill="#9C6262"/>
<path d="M66.8136 86.1194V2.17398e-05H73V86.1194H66.8136Z" fill="#9C6262"/>
<path d="M66.8608 86.532L54.6183 0H60.6429L72.8705 86.4273H66.8608V86.532Z" fill="#9C6262"/>
<path d="M23.5084 86.142V12.9726C26.9251 12.9726 29.6948 15.8076 29.6948 19.3049V86.142H23.5084Z" fill="#9C6262"/>
<path fill-rule="evenodd" clip-rule="evenodd" d="M33.5187 11.3981H23.5085V67.1224H33.5187C36.1902 67.1224 38.3559 64.9057 38.3559 62.1712V16.3494C38.3559 13.6149 36.1902 11.3981 33.5187 11.3981ZM32.1696 22.7963C32.1696 21.3974 31.0617 20.2634 29.695 20.2634V59.5237C31.0617 59.5237 32.1696 58.3896 32.1696 56.9907V22.7963Z" fill="#9C6262"/>
<path d="M35.7874 61.0981L29.6949 62.1977L33.8688 86.4273H40.1507L35.7874 61.0981Z" fill="#9C6262"/>
<path d="M3.68838 95C3.10239 95 2.57168 94.8699 2.09625 94.6096C1.62635 94.3436 1.25596 93.9786 0.985081 93.5146C0.719727 93.0506 0.58705 92.5272 0.58705 91.9444C0.58705 91.3615 0.722491 90.8381 0.993374 90.3741C1.26426 89.9101 1.63465 89.548 2.10454 89.2877C2.57997 89.0217 3.11068 88.8887 3.69667 88.8887C4.1721 88.8887 4.60606 88.9736 4.99856 89.1434C5.39107 89.3131 5.72276 89.5593 5.99364 89.8818L5.29709 90.5524C4.87694 90.0884 4.36006 89.8564 3.74642 89.8564C3.34839 89.8564 2.99182 89.9469 2.67671 90.128C2.36161 90.3034 2.1156 90.5495 1.9387 90.8664C1.7618 91.1833 1.67334 91.5426 1.67334 91.9444C1.67334 92.3461 1.7618 92.7054 1.9387 93.0223C2.1156 93.3392 2.36161 93.5882 2.67671 93.7693C2.99182 93.9447 3.34839 94.0324 3.74642 94.0324C4.36006 94.0324 4.87694 93.7976 5.29709 93.3279L5.99364 94.0069C5.72276 94.3295 5.3883 94.5756 4.99027 94.7454C4.59777 94.9151 4.1638 95 3.68838 95Z" fill="#9C6262"/>
<path d="M27.8154 88.9736V94.9151H26.7374V92.3688H23.7356V94.9151H22.6576V88.9736H23.7356V91.4266H26.7374V88.9736H27.8154Z" fill="#9C6262"/>
<path d="M48.7665 93.5401H45.8642L45.292 94.9151H44.1809L46.7929 88.9736H47.8544L50.4747 94.9151H49.347L48.7665 93.5401ZM48.41 92.6743L47.3154 90.077L46.2291 92.6743H48.41Z" fill="#9C6262"/>
<path d="M72.0018 88.9736V94.9151H71.1145L67.9137 90.8919V94.9151H66.844V88.9736H67.7312L70.9321 92.9969V88.9736H72.0018Z" fill="#9C6262"/>
</svg>
