<svg width="197" height="166" viewBox="0 0 197 166" fill="none" xmlns="http://www.w3.org/2000/svg">
<path fill-rule="evenodd" clip-rule="evenodd" d="M1.05475 13.9092C1.05475 13.9092 34.0314 151.864 43.357 160.974C52.6827 170.084 164.448 165.252 171.367 154.425C178.286 143.599 171.172 147.654 105.161 83.685C39.1509 19.7163 25.0626 9.21692 19.8202 4.99883C14.5778 0.780735 8.74838 0.211228 4.63169 2.79756C0.515008 5.38389 1.05475 13.9092 1.05475 13.9092Z" fill="#666666" fill-opacity="0.5"/>
<path fill-rule="evenodd" clip-rule="evenodd" d="M177.168 5.20119C165.841 17.452 30.6069 133.011 23.0573 150.163C15.5077 167.315 144.974 176.556 159.584 145.384C174.193 114.211 193.552 20.2368 195.782 12.719C198.012 5.20119 188.494 -7.04962 177.168 5.20119Z" fill="#ADADAC" fill-opacity="0.5"/>
</svg>
