<svg width="73" height="93" viewBox="0 0 73 93" fill="none" xmlns="http://www.w3.org/2000/svg">
<path d="M0 8.72109e-06H38.3559V6.199H0V8.72109e-06Z" fill="#008583"/>
<path d="M0 54.422H18.7601V60.621H0V54.422Z" fill="#008583"/>
<path d="M0 78.4088H18.7601V84.6077H0V78.4088Z" fill="#008583"/>
<path d="M0 84.0879V2.93289H6.18643V84.0879H0Z" fill="#008583"/>
<path d="M43.3049 84.3063V3.43827e-06H49.4914V84.3063H43.3049Z" fill="#008583"/>
<path d="M54.4407 84.3063V2.12821e-05H60.6271V84.3063H54.4407Z" fill="#008583"/>
<path d="M66.8136 84.3063V2.12821e-05H73V84.3063H66.8136Z" fill="#008583"/>
<path d="M66.8608 84.7102L54.6183 0H60.6429L72.8705 84.6078H66.8608V84.7102Z" fill="#008583"/>
<path d="M23.5084 84.3285V12.6995C26.9251 12.6995 29.6948 15.4748 29.6948 18.8984V84.3285H23.5084Z" fill="#008583"/>
<path fill-rule="evenodd" clip-rule="evenodd" d="M33.5187 11.1582H23.5085V65.7093H33.5187C36.1902 65.7093 38.3559 63.5392 38.3559 60.8623V16.0052C38.3559 13.3282 36.1902 11.1582 33.5187 11.1582ZM32.1696 22.3164C32.1696 20.9469 31.0617 19.8368 29.695 19.8368V58.2705C31.0617 58.2705 32.1696 57.1604 32.1696 55.7909V22.3164Z" fill="#008583"/>
<path d="M35.7874 59.8119L29.6949 60.8883L33.8688 84.6078H40.1507L35.7874 59.8119Z" fill="#008583"/>
<path d="M3.68838 93C3.10239 93 2.57168 92.8726 2.09625 92.6178C1.62635 92.3574 1.25596 92.0001 0.985081 91.5459C0.719727 91.0917 0.58705 90.5793 0.58705 90.0087C0.58705 89.4381 0.722491 88.9257 0.993374 88.4715C1.26426 88.0173 1.63465 87.6627 2.10454 87.4079C2.57997 87.1476 3.11068 87.0174 3.69667 87.0174C4.1721 87.0174 4.60606 87.1005 4.99856 87.2667C5.39107 87.4329 5.72276 87.6738 5.99364 87.9896L5.29709 88.646C4.87694 88.1918 4.36006 87.9646 3.74642 87.9646C3.34839 87.9646 2.99182 88.0533 2.67671 88.2305C2.36161 88.4023 2.1156 88.6432 1.9387 88.9534C1.7618 89.2636 1.67334 89.6154 1.67334 90.0087C1.67334 90.402 1.7618 90.7537 1.9387 91.064C2.1156 91.3742 2.36161 91.6179 2.67671 91.7952C2.99182 91.9669 3.34839 92.0527 3.74642 92.0527C4.36006 92.0527 4.87694 91.8229 5.29709 91.3631L5.99364 92.0278C5.72276 92.3436 5.3883 92.5845 4.99027 92.7507C4.59777 92.9169 4.1638 93 3.68838 93Z" fill="#008583"/>
<path d="M27.8154 87.1005V92.9169H26.7374V90.4242H23.7356V92.9169H22.6576V87.1005H23.7356V89.5018H26.7374V87.1005H27.8154Z" fill="#008583"/>
<path d="M48.7665 91.5708H45.8642L45.292 92.9169H44.1809L46.7929 87.1005H47.8544L50.4747 92.9169H49.347L48.7665 91.5708ZM48.41 90.7233L47.3154 88.1807L46.2291 90.7233H48.41Z" fill="#008583"/>
<path d="M72.0018 87.1005V92.9169H71.1145L67.9137 88.9784V92.9169H66.844V87.1005H67.7312L70.9321 91.039V87.1005H72.0018Z" fill="#008583"/>
</svg>
