<svg width="266" height="60" viewBox="0 0 266 60" fill="none" xmlns="http://www.w3.org/2000/svg">
<path d="M2.03841 30.0684C-0.189318 18.2237 22.0805 -1.34827 38.9826 2.49094C55.8848 6.33016 58.6828 28.1413 58.6828 28.1413C58.6828 28.1413 57.7756 39.0362 50.1979 39.0362C42.62 39.0362 45.6472 30.0684 42.2578 23.721C38.8683 17.3736 31.4697 37.7618 27.737 36.1196C24.0042 34.4774 30.3606 12.4599 24.3762 18.1646C18.3919 23.8691 4.19033 39.3863 11.123 50.3991C18.0557 61.412 46.2809 57.9449 48.2394 51.7091" stroke="#482998" stroke-width="3" stroke-linecap="round" stroke-linejoin="round"/>
<path d="M72.8826 42.6719V16.359H77.8195L84.654 35.3617L91.5349 16.359H96.4101V42.6719H92.5531V29.6681L92.6765 22.2142L92.1057 24.19L86.3202 40.8758H82.7409L77.079 24.1002L76.5081 22.1244L76.6469 29.7399V42.6719H72.8826ZM113.552 42.6719L121.867 16.341H126.419L134.611 42.6719H130.322L128.085 35.236H120.17L117.918 42.6719H113.552ZM121.219 31.6079H127.02C125.169 24.6989 124.218 21.1306 124.166 20.9031L121.219 31.6079ZM154.73 42.6719V20.2565H148.142V16.359H165.483V20.2565H158.927V42.6719H154.73ZM187.238 42.6719V20.2565H180.65V16.359H197.991V20.2565H191.434V42.6719H187.238ZM215.163 42.6719V16.359H228.863L228.694 20.2206H219.345V27.0099H228.231V30.8715H219.345V38.7923H229.033L228.895 42.6719H215.163ZM247.564 42.6719V16.2871H255.941C257.083 16.2871 258.07 16.347 258.903 16.4667C259.747 16.5864 260.544 16.808 261.294 17.1312C262.055 17.4426 262.668 17.8677 263.131 18.4065C263.604 18.9454 263.974 19.6518 264.242 20.5259C264.519 21.3881 264.658 22.4118 264.658 23.5972C264.658 27.0937 263.295 29.3927 260.569 30.4943C261.124 31.2248 261.814 32.5779 262.637 34.5535L266 42.6719H261.433L258.795 35.7928C257.798 33.3262 257.181 31.8654 256.944 31.4103C256.769 31.3983 256.187 31.3924 255.2 31.3924L251.699 31.3564V42.6719H247.564ZM256.311 27.872C257.915 27.872 259.068 27.5427 259.767 26.8841C260.467 26.2136 260.816 25.1419 260.816 23.6692C260.816 22.376 260.462 21.4239 259.752 20.8133C259.042 20.2026 257.957 19.8973 256.496 19.8973H251.699V27.8541C251.853 27.8541 252.619 27.86 253.997 27.872C255.375 27.872 256.147 27.872 256.311 27.872Z" fill="#482998"/>
</svg>
