<svg width="42" height="43" viewBox="0 0 42 43" fill="none" xmlns="http://www.w3.org/2000/svg">
<g clip-path="url(#clip0)">
<path d="M14.644 32.8425C14.644 33.0078 14.4534 33.14 14.213 33.14C13.9395 33.1648 13.7489 33.0326 13.7489 32.8425C13.7489 32.6772 13.9395 32.545 14.1799 32.545C14.4285 32.5202 14.644 32.6524 14.644 32.8425ZM12.0666 32.4706C12.0086 32.6359 12.1744 32.826 12.423 32.8755C12.6385 32.9582 12.8871 32.8755 12.9368 32.7103C12.9865 32.545 12.8291 32.3549 12.5804 32.2805C12.365 32.2227 12.1247 32.3053 12.0666 32.4706ZM15.7296 32.3301C15.4893 32.3879 15.3235 32.545 15.3484 32.7351C15.3732 32.9003 15.5887 33.0078 15.8373 32.9499C16.0776 32.8921 16.2434 32.7351 16.2185 32.5698C16.1937 32.4127 15.9699 32.3053 15.7296 32.3301ZM21.1826 0.661133C9.68822 0.661133 0.895508 9.36349 0.895508 20.8261C0.895508 29.9913 6.67997 37.8342 14.9423 40.5944C16.0031 40.7845 16.376 40.1316 16.376 39.5945C16.376 39.0821 16.3511 36.2557 16.3511 34.5201C16.3511 34.5201 10.5501 35.7598 9.33187 32.0574C9.33187 32.0574 8.38713 29.6524 7.02803 29.0326C7.02803 29.0326 5.13026 27.7351 7.16063 27.7599C7.16063 27.7599 9.22414 27.9252 10.3595 29.8921C12.1744 33.0822 15.2158 32.1648 16.4008 31.6194C16.5915 30.2971 17.1301 29.3797 17.7268 28.8343C13.0943 28.3219 8.42028 27.6525 8.42028 19.7022C8.42028 17.4295 9.05011 16.289 10.3761 14.8345C10.1606 14.2973 9.45618 12.0825 10.5915 9.22299C12.3235 8.68581 16.3097 11.4544 16.3097 11.4544C17.9671 10.9916 19.7489 10.7519 21.514 10.7519C23.2792 10.7519 25.061 10.9916 26.7184 11.4544C26.7184 11.4544 30.7045 8.67755 32.4366 9.22299C33.5719 12.0907 32.8675 14.2973 32.652 14.8345C33.978 16.2973 34.7901 17.4377 34.7901 19.7022C34.7901 27.6773 29.909 28.3136 25.2764 28.8343C26.0389 29.4872 26.6853 30.7268 26.6853 32.6689C26.6853 35.454 26.6604 38.9002 26.6604 39.5779C26.6604 40.1151 27.0416 40.768 28.0941 40.5779C36.3813 37.8341 42 29.9913 42 20.8261C42 9.36349 32.6769 0.661133 21.1826 0.661133ZM8.95066 29.1649C8.84293 29.2475 8.86779 29.4376 9.00867 29.5946C9.14126 29.7268 9.33187 29.7847 9.4396 29.6772C9.54734 29.5946 9.52248 29.4045 9.38159 29.2475C9.249 29.1153 9.05839 29.0574 8.95066 29.1649ZM8.05564 28.4954C7.99763 28.6029 8.0805 28.7351 8.24625 28.8178C8.37884 28.9004 8.54459 28.8756 8.6026 28.7599C8.66061 28.6525 8.57774 28.5202 8.41199 28.4376C8.24625 28.388 8.11365 28.4128 8.05564 28.4954ZM10.7407 31.4375C10.6081 31.545 10.6578 31.7929 10.8484 31.9499C11.039 32.14 11.2794 32.1648 11.3871 32.0326C11.4948 31.9251 11.4451 31.6772 11.2794 31.5202C11.097 31.3301 10.8484 31.3053 10.7407 31.4375ZM9.79595 30.2227C9.66336 30.3053 9.66336 30.5202 9.79595 30.7103C9.92855 30.9004 10.1523 30.983 10.26 30.9004C10.3926 30.7929 10.3926 30.5781 10.26 30.388C10.144 30.1979 9.92855 30.1153 9.79595 30.2227Z" fill="#9C6262"/>
</g>
<defs>
<clipPath id="clip0">
<rect width="41.1045" height="42.3134" fill="white" transform="translate(0.895508)"/>
</clipPath>
</defs>
</svg>
