<svg width="68" height="71" viewBox="0 0 68 71" fill="none" xmlns="http://www.w3.org/2000/svg">
<path d="M22.7444 55.281C22.7444 55.5544 22.429 55.7732 22.0315 55.7732C21.579 55.8142 21.2637 55.5955 21.2637 55.281C21.2637 55.0076 21.579 54.7888 21.9766 54.7888C22.3879 54.7478 22.7444 54.9666 22.7444 55.281ZM18.4806 54.6658C18.3847 54.9392 18.6589 55.2537 19.0702 55.3357C19.4266 55.4724 19.8379 55.3357 19.9202 55.0623C20.0024 54.7888 19.7419 54.4744 19.3306 54.3513C18.9742 54.2556 18.5766 54.3923 18.4806 54.6658ZM24.5403 54.4334C24.1427 54.5291 23.8685 54.7888 23.9097 55.1033C23.9508 55.3767 24.3073 55.5544 24.7185 55.4587C25.1161 55.363 25.3903 55.1033 25.3492 54.8298C25.3081 54.5701 24.9379 54.3923 24.5403 54.4334ZM33.5613 2.04272C14.546 2.04272 0 16.4392 0 35.4021C0 50.5642 9.56936 63.5388 23.2379 68.1052C24.9927 68.4197 25.6097 67.3396 25.6097 66.4509C25.6097 65.6033 25.5685 60.9275 25.5685 58.0564C25.5685 58.0564 15.9718 60.1072 13.9565 53.9822C13.9565 53.9822 12.3935 50.0037 10.1452 48.9783C10.1452 48.9783 7.00565 46.8318 10.3645 46.8728C10.3645 46.8728 13.7782 47.1462 15.6565 50.4001C18.6589 55.6775 23.6903 54.1599 25.6508 53.2576C25.9661 51.0701 26.8573 49.5525 27.8444 48.6501C20.1806 47.8025 12.4484 46.6951 12.4484 33.5427C12.4484 29.783 13.4903 27.8962 15.6839 25.49C15.3274 24.6013 14.1621 20.9373 16.0403 16.2068C18.9056 15.3181 25.5 19.8982 25.5 19.8982C28.2419 19.1326 31.1895 18.7361 34.1097 18.7361C37.0298 18.7361 39.9774 19.1326 42.7194 19.8982C42.7194 19.8982 49.3137 15.3044 52.179 16.2068C54.0573 20.9509 52.8919 24.6013 52.5355 25.49C54.729 27.9099 56.0726 29.7966 56.0726 33.5427C56.0726 46.7361 47.9976 47.7888 40.3339 48.6501C41.5952 49.7302 42.6645 51.781 42.6645 54.9939C42.6645 59.6013 42.6234 65.3025 42.6234 66.4236C42.6234 67.3123 43.254 68.3923 44.9952 68.0779C58.7048 63.5388 68 50.5642 68 35.4021C68 16.4392 52.5766 2.04272 33.5613 2.04272ZM13.3258 49.197C13.1476 49.3337 13.1887 49.6482 13.4218 49.908C13.6411 50.1267 13.9565 50.2224 14.1347 50.0447C14.3129 49.908 14.2718 49.5935 14.0387 49.3337C13.8194 49.115 13.504 49.0193 13.3258 49.197ZM11.8452 48.0896C11.7492 48.2673 11.8863 48.4861 12.1605 48.6228C12.3798 48.7595 12.654 48.7185 12.75 48.5271C12.846 48.3494 12.7089 48.1306 12.4347 47.9939C12.1605 47.9119 11.9411 47.9529 11.8452 48.0896ZM16.2871 52.9568C16.0677 53.1345 16.15 53.5447 16.4653 53.8044C16.7806 54.1189 17.1782 54.1599 17.3565 53.9412C17.5347 53.7634 17.4524 53.3533 17.1782 53.0935C16.8766 52.7791 16.4653 52.738 16.2871 52.9568ZM14.7242 50.947C14.5048 51.0837 14.5048 51.4392 14.7242 51.7537C14.9435 52.0681 15.3137 52.2048 15.4919 52.0681C15.7113 51.8904 15.7113 51.5349 15.4919 51.2205C15.3 50.906 14.9435 50.7693 14.7242 50.947Z" fill="#7BABCA"/>
</svg>
