<svg width="37" height="43" viewBox="0 0 37 43" fill="none" xmlns="http://www.w3.org/2000/svg">
<g clip-path="url(#clip0)">
<path d="M8.37304 37.0252H0.72845V12.3065H8.37304V37.0252ZM4.54663 8.9347C2.10214 8.9347 0.119385 6.90167 0.119385 4.44716C0.119385 3.26817 0.585825 2.13747 1.41609 1.30379C2.24636 0.470122 3.37245 0.00177002 4.54663 0.00177002C5.72081 0.00177002 6.8469 0.470122 7.67716 1.30379C8.50743 2.13747 8.97388 3.26817 8.97388 4.44716C8.97388 6.90167 6.9903 8.9347 4.54663 8.9347ZM36.9843 37.0252H29.3562V24.9923C29.3562 22.1246 29.2985 18.447 25.3816 18.447C21.407 18.447 20.798 21.5626 20.798 24.7857V37.0252H13.1616V12.3065H20.4934V15.6784H20.6004C21.621 13.7363 24.1141 11.6867 27.8335 11.6867C35.5703 11.6867 36.9925 16.8024 36.9925 23.4469V37.0252H36.9843Z" fill="#9C6262"/>
</g>
<defs>
<clipPath id="clip0">
<rect width="36.8731" height="42.3134" fill="white" transform="translate(0.119385)"/>
</clipPath>
</defs>
</svg>
