<svg width="61" height="71" viewBox="0 0 61 71" fill="none" xmlns="http://www.w3.org/2000/svg">
<g clip-path="url(#clip0)">
<path d="M13.6542 62.2004H1.00759V21.3078H13.6542V62.2004ZM7.32409 15.7297C3.28011 15.7297 0 12.3664 0 8.30585C2.8945e-08 6.35542 0.771642 4.48488 2.14517 3.10572C3.51871 1.72656 5.38162 0.951752 7.32409 0.951752C9.26655 0.951752 11.1295 1.72656 12.503 3.10572C13.8765 4.48488 14.6482 6.35542 14.6482 8.30585C14.6482 12.3664 11.3667 15.7297 7.32409 15.7297ZM60.9864 62.2004H48.367V42.2941C48.367 37.55 48.2717 31.466 41.7918 31.466C35.2166 31.466 34.209 36.6203 34.209 41.9523V62.2004H21.576V21.3078H33.7052V26.8859H33.8822C35.5706 23.673 39.6949 20.2824 45.848 20.2824C58.6471 20.2824 61 28.7453 61 39.7375V62.2004H60.9864Z" fill="#7BABCA"/>
</g>
<defs>
<clipPath id="clip0">
<rect width="61" height="70" fill="white" transform="translate(0 0.948975)"/>
</clipPath>
</defs>
</svg>
