<svg width="42" height="43" viewBox="0 0 42 43" fill="none" xmlns="http://www.w3.org/2000/svg">
<g clip-path="url(#clip0)">
<path d="M41.1045 21.1567C41.1045 32.4789 31.9057 41.6523 20.5522 41.6523C18.4307 41.6523 16.3921 41.33 14.4694 40.7349C15.3064 39.3713 16.5578 37.1399 17.0219 35.3631C17.2705 34.4044 18.2981 30.4871 18.2981 30.4871C18.9694 31.7599 20.9252 32.8425 23.0052 32.8425C29.2041 32.8425 33.6709 27.1566 33.6709 20.0906C33.6709 13.3221 28.1267 8.25606 20.9997 8.25606C12.1324 8.25606 7.41704 14.1899 7.41704 20.6608C7.41704 23.6691 9.02475 27.4128 11.5855 28.6029C11.975 28.7847 12.1822 28.702 12.2733 28.3302C12.3396 28.0492 12.6877 26.6525 12.8451 26.0079C12.8949 25.8013 12.87 25.6194 12.7043 25.4211C11.8673 24.3881 11.1877 22.5038 11.1877 20.7435C11.1877 16.2229 14.6186 11.8511 20.4694 11.8511C25.5163 11.8511 29.0549 15.2808 29.0549 20.1898C29.0549 25.7351 26.2455 29.5781 22.5909 29.5781C20.5771 29.5781 19.0605 27.9169 19.5495 25.8756C20.1296 23.4377 21.2484 20.8096 21.2484 19.0493C21.2484 17.4791 20.4031 16.165 18.6462 16.165C16.5827 16.165 14.9252 18.289 14.9252 21.1402C14.9252 22.9583 15.5385 24.1815 15.5385 24.1815C15.5385 24.1815 13.5081 32.7598 13.1352 34.3631C12.7208 36.1317 12.8866 38.6275 13.0606 40.2473C5.41982 37.2639 0 29.8425 0 21.1567C0 9.83455 9.19878 0.661133 20.5522 0.661133C31.9057 0.661133 41.1045 9.83455 41.1045 21.1567Z" fill="#9C6262"/>
</g>
<defs>
<clipPath id="clip0">
<rect width="41.1045" height="42.3134" fill="white"/>
</clipPath>
</defs>
</svg>
