<svg width="37" height="43" viewBox="0 0 37 43" fill="none" xmlns="http://www.w3.org/2000/svg">
<g clip-path="url(#clip0)">
<path d="M18.4524 11.6527C13.2178 11.6527 8.99546 15.8923 8.99546 21.1485C8.99546 26.4046 13.2178 30.6442 18.4524 30.6442C23.6871 30.6442 27.9094 26.4046 27.9094 21.1485C27.9094 15.8923 23.6871 11.6527 18.4524 11.6527ZM18.4524 27.3219C15.0697 27.3219 12.3042 24.5534 12.3042 21.1485C12.3042 17.7435 15.0614 14.975 18.4524 14.975C21.8434 14.975 24.6007 17.7435 24.6007 21.1485C24.6007 24.5534 21.8352 27.3219 18.4524 27.3219V27.3219ZM30.502 11.2643C30.502 12.4957 29.5144 13.4791 28.2962 13.4791C27.0699 13.4791 26.0904 12.4874 26.0904 11.2643C26.0904 10.0412 27.0781 9.04945 28.2962 9.04945C29.5144 9.04945 30.502 10.0412 30.502 11.2643ZM36.7655 13.5122C36.6256 10.5453 35.9507 7.91724 33.7861 5.75198C31.6296 3.58672 29.0123 2.90905 26.0575 2.76029C23.0122 2.58674 13.8844 2.58674 10.8391 2.76029C7.89256 2.90078 5.27523 3.57846 3.11058 5.74372C0.945928 7.90898 0.279248 10.537 0.131097 13.5039C-0.0417459 16.5617 -0.0417459 25.7269 0.131097 28.7847C0.271017 31.7516 0.945928 34.3797 3.11058 36.5449C5.27523 38.7102 7.88433 39.3879 10.8391 39.5366C13.8844 39.7102 23.0122 39.7102 26.0575 39.5366C29.0123 39.3961 31.6296 38.7184 33.7861 36.5449C35.9425 34.3797 36.6174 31.7516 36.7655 28.7847C36.9384 25.7269 36.9384 16.57 36.7655 13.5122V13.5122ZM32.8313 32.0656C32.1893 33.6855 30.9465 34.9334 29.3251 35.5863C26.897 36.5532 21.1356 36.33 18.4524 36.33C15.7693 36.33 9.9996 36.5449 7.5798 35.5863C5.9666 34.9416 4.72378 33.6937 4.07356 32.0656C3.11058 29.6277 3.3328 23.8426 3.3328 21.1485C3.3328 18.4543 3.11881 12.661 4.07356 10.2313C4.71555 8.61144 5.95837 7.36353 7.5798 6.71065C10.0078 5.74372 15.7693 5.96686 18.4524 5.96686C21.1356 5.96686 26.9053 5.75198 29.3251 6.71065C30.9383 7.35526 32.1811 8.60318 32.8313 10.2313C33.7943 12.6692 33.5721 18.4543 33.5721 21.1485C33.5721 23.8426 33.7943 29.6359 32.8313 32.0656Z" fill="#9C6262"/>
</g>
<defs>
<clipPath id="clip0">
<rect width="36.8731" height="42.3134" fill="white" transform="translate(0.00756836)"/>
</clipPath>
</defs>
</svg>
