<svg width="28" height="32" viewBox="0 0 28 32" fill="none" xmlns="http://www.w3.org/2000/svg">
<g clip-path="url(#clip0)">
<path d="M14.0063 8.81251C10.0313 8.81251 6.82505 12.0188 6.82505 15.9938C6.82505 19.9688 10.0313 23.175 14.0063 23.175C17.9813 23.175 21.1875 19.9688 21.1875 15.9938C21.1875 12.0188 17.9813 8.81251 14.0063 8.81251ZM14.0063 20.6625C11.4375 20.6625 9.33755 18.5688 9.33755 15.9938C9.33755 13.4188 11.4313 11.325 14.0063 11.325C16.5813 11.325 18.675 13.4188 18.675 15.9938C18.675 18.5688 16.575 20.6625 14.0063 20.6625V20.6625ZM23.1563 8.51876C23.1563 9.45001 22.4063 10.1938 21.4813 10.1938C20.5501 10.1938 19.8063 9.44376 19.8063 8.51876C19.8063 7.59376 20.5563 6.84376 21.4813 6.84376C22.4063 6.84376 23.1563 7.59376 23.1563 8.51876ZM27.9125 10.2188C27.8063 7.97501 27.2938 5.98751 25.65 4.35001C24.0125 2.71251 22.025 2.20001 19.7813 2.08751C17.4688 1.95626 10.5375 1.95626 8.22505 2.08751C5.98755 2.19376 4.00005 2.70626 2.3563 4.34376C0.712549 5.98126 0.206299 7.96876 0.0937988 10.2125C-0.0374512 12.525 -0.0374512 19.4563 0.0937988 21.7688C0.200049 24.0125 0.712549 26 2.3563 27.6375C4.00005 29.275 5.9813 29.7875 8.22505 29.9C10.5375 30.0313 17.4688 30.0313 19.7813 29.9C22.025 29.7938 24.0125 29.2813 25.65 27.6375C27.2875 26 27.8 24.0125 27.9125 21.7688C28.0438 19.4563 28.0438 12.5313 27.9125 10.2188V10.2188ZM24.925 24.25C24.4375 25.475 23.4938 26.4188 22.2626 26.9125C20.4188 27.6438 16.0438 27.475 14.0063 27.475C11.9688 27.475 7.58755 27.6375 5.75005 26.9125C4.52505 26.425 3.5813 25.4813 3.08755 24.25C2.3563 22.4063 2.52505 18.0313 2.52505 15.9938C2.52505 13.9563 2.36255 9.57501 3.08755 7.73751C3.57505 6.51251 4.5188 5.56876 5.75005 5.07501C7.5938 4.34376 11.9688 4.51251 14.0063 4.51251C16.0438 4.51251 20.4251 4.35001 22.2626 5.07501C23.4876 5.56251 24.4313 6.50626 24.925 7.73751C25.6563 9.58126 25.4875 13.9563 25.4875 15.9938C25.4875 18.0313 25.6563 22.4125 24.925 24.25Z" fill="#7BABCA"/>
</g>
<defs>
<clipPath id="clip0">
<rect width="28" height="32" fill="white"/>
</clipPath>
</defs>
</svg>
