<svg width="61" height="71" viewBox="0 0 61 71" fill="none" xmlns="http://www.w3.org/2000/svg">
<g clip-path="url(#clip0)">
<path d="M30.5136 20.2263C21.8538 20.2263 14.8687 27.24 14.8687 35.9353C14.8687 44.6306 21.8538 51.6443 30.5136 51.6443C39.1734 51.6443 46.1585 44.6306 46.1585 35.9353C46.1585 27.24 39.1734 20.2263 30.5136 20.2263ZM30.5136 46.1482C24.9174 46.1482 20.3424 41.5681 20.3424 35.9353C20.3424 30.3025 24.9038 25.7224 30.5136 25.7224C36.1234 25.7224 40.6848 30.3025 40.6848 35.9353C40.6848 41.5681 36.1098 46.1482 30.5136 46.1482V46.1482ZM50.4475 19.5837C50.4475 21.6209 48.8136 23.2478 46.7984 23.2478C44.7696 23.2478 43.1493 21.6072 43.1493 19.5837C43.1493 17.5603 44.7833 15.9197 46.7984 15.9197C48.8136 15.9197 50.4475 17.5603 50.4475 19.5837ZM60.8094 23.3025C60.5779 18.3943 59.4614 14.0466 55.8803 10.4646C52.3129 6.88257 47.983 5.76147 43.0949 5.51538C38.0569 5.22827 22.9567 5.22827 17.9187 5.51538C13.0442 5.7478 8.71427 6.8689 5.13325 10.4509C1.55222 14.033 0.449319 18.3806 0.20423 23.2888C-0.0817078 28.3474 -0.0817078 43.5095 0.20423 48.5681C0.435703 53.4763 1.55222 57.824 5.13325 61.406C8.71427 64.988 13.0306 66.1091 17.9187 66.3552C22.9567 66.6423 38.0569 66.6423 43.0949 66.3552C47.983 66.1228 52.3129 65.0017 55.8803 61.406C59.4478 57.824 60.5643 53.4763 60.8094 48.5681C61.0953 43.5095 61.0953 28.3611 60.8094 23.3025V23.3025ZM54.3009 53.9959C53.2388 56.6755 51.1828 58.74 48.5004 59.8201C44.4837 61.4197 34.9524 61.0505 30.5136 61.0505C26.0748 61.0505 16.5299 61.406 12.5268 59.8201C9.85802 58.7537 7.802 56.6892 6.72633 53.9959C5.13325 49.9626 5.50088 40.3923 5.50088 35.9353C5.50088 31.4783 5.14686 21.8943 6.72633 17.8748C7.78838 15.1951 9.84441 13.1306 12.5268 12.0505C16.5435 10.4509 26.0748 10.8201 30.5136 10.8201C34.9524 10.8201 44.4973 10.4646 48.5004 12.0505C51.1692 13.1169 53.2252 15.1814 54.3009 17.8748C55.894 21.908 55.5263 31.4783 55.5263 35.9353C55.5263 40.3923 55.894 49.9763 54.3009 53.9959Z" fill="#7BABCA"/>
</g>
<defs>
<clipPath id="clip0">
<rect width="61" height="70" fill="white" transform="translate(0 0.948975)"/>
</clipPath>
</defs>
</svg>
