<svg width="68" height="71" viewBox="0 0 68 71" fill="none" xmlns="http://www.w3.org/2000/svg">
<path d="M68 35.949C68 54.6794 52.7823 69.8552 34 69.8552C30.4903 69.8552 27.1177 69.322 23.9371 68.3376C25.3218 66.0818 27.3919 62.3904 28.1597 59.4509C28.571 57.865 30.271 51.3845 30.271 51.3845C31.3815 53.49 34.6169 55.281 38.0581 55.281C48.3129 55.281 55.7024 45.8748 55.7024 34.1853C55.7024 22.988 46.5306 14.6072 34.7403 14.6072C20.071 14.6072 12.2702 24.4236 12.2702 35.1287C12.2702 40.1052 14.9298 46.2986 19.1661 48.2673C19.8105 48.5681 20.1532 48.4314 20.304 47.8162C20.4137 47.3513 20.9895 45.0408 21.25 43.9744C21.3323 43.6326 21.2911 43.3318 21.0169 43.0037C19.6323 41.2947 18.5081 38.1775 18.5081 35.2654C18.5081 27.7869 24.1839 20.5544 33.8629 20.5544C42.2121 20.5544 48.0661 26.2283 48.0661 34.3494C48.0661 43.5232 43.4186 49.8806 37.3726 49.8806C34.0411 49.8806 31.5323 47.1326 32.3411 43.7556C33.3008 39.7224 35.1516 35.3748 35.1516 32.4626C35.1516 29.865 33.7532 27.6912 30.8468 27.6912C27.4331 27.6912 24.6911 31.2048 24.6911 35.9216C24.6911 38.9294 25.7056 40.9529 25.7056 40.9529C25.7056 40.9529 22.3468 55.1443 21.7298 57.7966C21.0444 60.7224 21.3185 64.8513 21.6065 67.531C8.96613 62.5955 0 50.3181 0 35.949C0 17.2185 15.2177 2.04272 34 2.04272C52.7823 2.04272 68 17.2185 68 35.949Z" fill="#7BABCA"/>
</svg>
