<svg width="473" height="103" viewBox="0 0 473 103" fill="none" xmlns="http://www.w3.org/2000/svg">
<path d="M2.27594 52.0119C-1.6934 30.9072 37.9867 -3.96591 68.1027 2.87476C98.2188 9.71543 103.204 48.5783 103.204 48.5783C103.204 48.5783 101.588 67.9906 88.0859 67.9906C74.5837 67.9906 79.9776 52.0119 73.9383 40.7022C67.899 29.3926 54.7163 65.72 48.0653 62.794C41.4144 59.8679 52.7402 20.6373 42.0772 30.8019C31.4144 40.9662 6.11021 68.6144 18.4628 88.2371C30.8155 107.86 81.1067 101.682 84.5964 90.5712" stroke="#482998" stroke-width="3" stroke-linecap="round" stroke-linejoin="round"/>
<path d="M128.505 74.4692V27.585H137.302L149.48 61.444L161.74 27.585H170.427V74.4692H163.554V51.2991L163.774 38.0179L162.757 41.5383L152.448 71.2689H146.071L135.982 41.3783L134.965 37.8579L135.213 51.4272V74.4692H128.505ZM200.969 74.4692L215.785 27.5531H223.896L238.493 74.4692H230.85L226.864 61.2199H212.762L208.749 74.4692H200.969ZM214.631 54.7555H224.967C221.669 42.445 219.974 36.0871 219.881 35.6817L214.631 54.7555ZM274.341 74.4692V34.5296H262.603V27.585H293.5V34.5296H281.818V74.4692H274.341ZM332.263 74.4692V34.5296H320.525V27.585H351.422V34.5296H339.74V74.4692H332.263ZM382.02 74.4692V27.585H406.43L406.128 34.4657H389.47V46.5627H405.304V53.4434H389.47V67.5566H406.733L406.487 74.4692H382.02ZM439.75 74.4692V27.457H454.676C456.712 27.457 458.471 27.5637 459.954 27.777C461.458 27.9904 462.878 28.3851 464.215 28.961C465.572 29.5159 466.662 30.2733 467.487 31.2333C468.33 32.1935 468.99 33.4523 469.467 35.0097C469.961 36.5459 470.209 38.37 470.209 40.4821C470.209 46.712 467.779 50.8084 462.924 52.7712C463.912 54.0728 465.14 56.4837 466.608 60.0039L472.6 74.4692H464.463L459.762 62.2121C457.985 57.8171 456.886 55.2142 456.464 54.4034C456.152 54.3821 455.116 54.3714 453.357 54.3714L447.118 54.3073V74.4692H439.75ZM455.336 48.0988C458.195 48.0988 460.248 47.512 461.493 46.3386C462.741 45.1439 463.364 43.2344 463.364 40.6103C463.364 38.3061 462.732 36.6098 461.467 35.5218C460.202 34.4336 458.269 33.8896 455.667 33.8896H447.118V48.0669C447.392 48.0669 448.758 48.0775 451.214 48.0988C453.668 48.0988 455.044 48.0988 455.336 48.0988Z" fill="#482998"/>
</svg>
