<svg width="207" height="170" viewBox="0 0 207 170" fill="none" xmlns="http://www.w3.org/2000/svg">
<path d="M11.2883 119.559C11.2883 119.559 42.2831 20.9192 45.8935 12.9104C49.504 4.90165 62.4352 2 62.4352 2C62.4352 2 73.3133 2 80.8658 12.9104C88.4184 23.8209 103.469 67.0015 103.469 67.0015C103.469 67.0015 120.543 19.9742 124.492 12.9104C128.441 5.8466 132.87 2 143.512 2C154.153 2 158.767 11.6739 161.681 16.2948C164.594 20.9156 170.691 42.7103 170.691 42.7103" stroke="#979797" stroke-width="4" stroke-linecap="round" stroke-linejoin="round"/>
<path fill-rule="evenodd" clip-rule="evenodd" d="M12.0129 125.279C15.8983 125.279 19.048 122.199 19.048 118.399C19.048 114.6 15.8983 111.52 12.0129 111.52C8.12755 111.52 4.97784 114.6 4.97784 118.399C4.97784 122.199 8.12755 125.279 12.0129 125.279Z" fill="#979797"/>
<path fill-rule="evenodd" clip-rule="evenodd" d="M177.544 67.0024C181.429 67.0024 184.579 63.9221 184.579 60.1223C184.579 56.3225 181.429 53.2422 177.544 53.2422C173.658 53.2422 170.509 56.3225 170.509 60.1223C170.509 63.9221 173.658 67.0024 177.544 67.0024Z" fill="#979797"/>
<path d="M183.508 79.5703C183.508 79.5703 204.486 136.737 204.486 144.222C204.486 151.706 201.314 163.358 194.116 166.162C186.919 168.965 180.901 168.73 172.773 163.358C164.644 157.987 151.183 112.958 151.183 112.958" stroke="#979797" stroke-width="4" stroke-linecap="round"/>
<path d="M3.59345 139.194C-0.931454 149.751 4.02231 166.161 20.4862 166.161C36.9501 166.161 40.4051 156.461 40.4051 156.461L66.1987 87.5665C66.1987 87.5665 77.6487 120.413 82.1991 128.161C86.7496 135.909 89.1336 146.535 103.469 146.535C117.804 146.535 122.809 136.703 128.167 122.865C133.526 109.027 133.526 60.7793 180.901 60.7793" stroke="#979797" stroke-width="4" stroke-linecap="round" stroke-linejoin="round"/>
</svg>
