<svg width="267" height="132" viewBox="0 0 267 132" fill="none" xmlns="http://www.w3.org/2000/svg">
<path d="M25.1287 42.5992C25.1287 42.5992 35.5691 9.37286 36.7853 6.67513C38.0015 3.97741 42.3573 3 42.3573 3C42.3573 3 46.0216 3 48.5656 6.67513C51.1096 10.3503 56.1793 24.8955 56.1793 24.8955C56.1793 24.8955 61.9307 9.05456 63.261 6.67513C64.5912 4.29571 66.0831 3 69.6676 3C73.2521 3 74.8064 6.25861 75.7877 7.81514C76.7691 9.37166 78.8229 16.7131 78.8229 16.7131" stroke="#979797" stroke-width="4" stroke-linecap="round" stroke-linejoin="round"/>
<path fill-rule="evenodd" clip-rule="evenodd" d="M25.3727 44.5255C26.6814 44.5255 27.7424 43.488 27.7424 42.2081C27.7424 40.9282 26.6814 39.8906 25.3727 39.8906C24.0639 39.8906 23.0029 40.9282 23.0029 42.2081C23.0029 43.488 24.0639 44.5255 25.3727 44.5255Z" fill="#979797"/>
<path fill-rule="evenodd" clip-rule="evenodd" d="M81.1312 24.8958C82.44 24.8958 83.501 23.8582 83.501 22.5783C83.501 21.2983 82.44 20.2607 81.1312 20.2607C79.8224 20.2607 78.7615 21.2983 78.7615 22.5783C78.7615 23.8582 79.8224 24.8958 81.1312 24.8958Z" fill="#979797"/>
<path d="M83.1401 29.1289C83.1401 29.1289 90.2065 48.3852 90.2065 50.9064C90.2065 53.4276 89.138 57.3526 86.7136 58.2969C84.2892 59.2411 82.2621 59.1619 79.524 57.3526C76.7858 55.5433 72.2517 40.3756 72.2517 40.3756" stroke="#979797" stroke-width="4" stroke-linecap="round"/>
<path d="M22.5367 49.2133C21.0126 52.7695 22.6812 58.2971 28.227 58.2971C33.7728 58.2971 34.9366 55.03 34.9366 55.03L43.6251 31.823C43.6251 31.823 47.482 42.8871 49.0148 45.497C50.5476 48.1069 51.3506 51.6864 56.1794 51.6864C61.0081 51.6864 62.694 48.3745 64.499 43.7132C66.304 39.0519 66.304 22.7998 82.2622 22.7998" stroke="#979797" stroke-width="4" stroke-linecap="round" stroke-linejoin="round"/>
<path fill-rule="evenodd" clip-rule="evenodd" d="M105.22 7.68547C105.22 7.68547 116.328 54.1549 119.469 57.2237C122.61 60.2925 160.258 58.6646 162.589 55.0177C164.919 51.3708 162.523 52.7368 140.287 31.1892C118.052 9.64155 113.307 6.10488 111.541 4.68404C109.775 3.26319 107.811 3.07135 106.424 3.94255C105.038 4.81374 105.22 7.68547 105.22 7.68547Z" fill="#666666" fill-opacity="0.5"/>
<path fill-rule="evenodd" clip-rule="evenodd" d="M164.543 4.752C160.727 8.87864 115.174 47.8043 112.631 53.5818C110.088 59.3593 153.698 62.4723 158.619 51.9719C163.541 41.4715 170.061 9.81669 170.813 7.28435C171.564 4.752 168.358 0.625363 164.543 4.752Z" fill="#ADADAC" fill-opacity="0.5"/>
<path d="M187.155 31.0487C184.92 19.3207 207.268 -0.0584489 224.23 3.74294C241.192 7.54433 244 29.1406 244 29.1406C244 29.1406 243.09 39.928 235.485 39.928C227.88 39.928 230.918 31.0487 227.517 24.7639C224.115 18.479 216.691 38.6663 212.945 37.0403C209.199 35.4143 215.578 13.6137 209.572 19.2621C203.567 24.9106 189.315 40.2747 196.272 51.1791C203.229 62.0835 231.554 58.6505 233.52 52.4761" stroke="#7D7D7D" stroke-width="5" stroke-linecap="round" stroke-linejoin="round"/>
<path d="M2.15487 102.068C-0.0728625 90.2237 22.1969 70.6517 39.0991 74.4909C56.0012 78.3302 58.7992 100.141 58.7992 100.141C58.7992 100.141 57.8921 111.036 50.3143 111.036C42.7364 111.036 45.7637 102.068 42.3742 95.721C38.9848 89.3736 31.5861 109.762 27.8534 108.12C24.1207 106.477 30.4771 84.4599 24.4926 90.1646C18.5083 95.8691 4.30679 111.386 11.2395 122.399C18.1722 133.412 46.3973 129.945 48.3559 123.709" stroke="#482998" stroke-width="3" stroke-linecap="round" stroke-linejoin="round"/>
<path d="M72.999 114.672V88.359H77.936L84.7705 107.362L91.6514 88.359H96.5266V114.672H92.6696V101.668L92.793 94.2142L92.2222 96.19L86.4367 112.876H82.8574L77.1954 96.1002L76.6245 94.1244L76.7633 101.74V114.672H72.999ZM113.668 114.672L121.984 88.341H126.535L134.728 114.672H130.439L128.201 107.236H120.287L118.034 114.672H113.668ZM121.336 103.608H127.137C125.285 96.6989 124.335 93.1306 124.282 92.9031L121.336 103.608ZM154.847 114.672V92.2565H148.259V88.359H165.599V92.2565H159.043V114.672H154.847ZM187.355 114.672V92.2565H180.767V88.359H198.107V92.2565H191.551V114.672H187.355ZM215.28 114.672V88.359H228.98L228.81 92.2206H219.461V99.0099H228.348V102.872H219.461V110.792H229.15L229.011 114.672H215.28ZM247.68 114.672V88.2871H256.057C257.199 88.2871 258.187 88.347 259.019 88.4667C259.863 88.5864 260.66 88.808 261.411 89.1312C262.172 89.4426 262.784 89.8677 263.247 90.4065C263.72 90.9454 264.09 91.6518 264.358 92.5259C264.635 93.3881 264.775 94.4118 264.775 95.5972C264.775 99.0937 263.411 101.393 260.686 102.494C261.241 103.225 261.93 104.578 262.753 106.554L266.116 114.672H261.55L258.912 107.793C257.914 105.326 257.297 103.865 257.06 103.41C256.885 103.398 256.304 103.392 255.316 103.392L251.815 103.356V114.672H247.68ZM256.427 99.872C258.032 99.872 259.184 99.5427 259.883 98.8841C260.583 98.2136 260.933 97.1419 260.933 95.6692C260.933 94.376 260.578 93.4239 259.868 92.8133C259.158 92.2026 258.073 91.8973 256.613 91.8973H251.815V99.8541C251.969 99.8541 252.735 99.86 254.114 99.872C255.491 99.872 256.263 99.872 256.427 99.872Z" fill="#482998"/>
</svg>
