<svg width="227" height="61" viewBox="0 0 227 61" fill="none" xmlns="http://www.w3.org/2000/svg">
<path d="M5.12866 42.5992C5.12866 42.5992 15.5691 9.37286 16.7853 6.67513C18.0015 3.97741 22.3573 3 22.3573 3C22.3573 3 26.0216 3 28.5656 6.67513C31.1096 10.3503 36.1793 24.8955 36.1793 24.8955C36.1793 24.8955 41.9307 9.05456 43.261 6.67513C44.5912 4.29571 46.0831 3 49.6676 3C53.2521 3 54.8064 6.25861 55.7877 7.81514C56.7691 9.37166 58.8229 16.7131 58.8229 16.7131" stroke="#979797" stroke-width="4" stroke-linecap="round" stroke-linejoin="round"/>
<path fill-rule="evenodd" clip-rule="evenodd" d="M5.37267 44.5255C6.68144 44.5255 7.7424 43.488 7.7424 42.2081C7.7424 40.9282 6.68144 39.8906 5.37267 39.8906C4.0639 39.8906 3.00293 40.9282 3.00293 42.2081C3.00293 43.488 4.0639 44.5255 5.37267 44.5255Z" fill="#979797"/>
<path fill-rule="evenodd" clip-rule="evenodd" d="M61.1312 24.8958C62.44 24.8958 63.501 23.8582 63.501 22.5783C63.501 21.2983 62.44 20.2607 61.1312 20.2607C59.8224 20.2607 58.7615 21.2983 58.7615 22.5783C58.7615 23.8582 59.8224 24.8958 61.1312 24.8958Z" fill="#979797"/>
<path d="M63.1401 29.1289C63.1401 29.1289 70.2065 48.3852 70.2065 50.9064C70.2065 53.4276 69.138 57.3526 66.7136 58.2969C64.2892 59.2411 62.2621 59.1619 59.524 57.3526C56.7858 55.5433 52.2517 40.3756 52.2517 40.3756" stroke="#979797" stroke-width="4" stroke-linecap="round"/>
<path d="M2.53675 49.2133C1.01255 52.7695 2.68121 58.2971 8.22701 58.2971C13.7728 58.2971 14.9366 55.03 14.9366 55.03L23.6251 31.823C23.6251 31.823 27.482 42.8871 29.0148 45.497C30.5476 48.1069 31.3506 51.6864 36.1794 51.6864C41.0081 51.6864 42.694 48.3745 44.499 43.7132C46.304 39.0519 46.304 22.7998 62.2622 22.7998" stroke="#979797" stroke-width="4" stroke-linecap="round" stroke-linejoin="round"/>
<path fill-rule="evenodd" clip-rule="evenodd" d="M85.2196 7.68547C85.2196 7.68547 96.3276 54.1549 99.4689 57.2237C102.61 60.2925 140.258 58.6646 142.589 55.0177C144.919 51.3708 142.523 52.7368 120.287 31.1892C98.0521 9.64155 93.3065 6.10488 91.5406 4.68404C89.7748 3.26319 87.8111 3.07135 86.4244 3.94255C85.0378 4.81374 85.2196 7.68547 85.2196 7.68547Z" fill="#666666" fill-opacity="0.5"/>
<path fill-rule="evenodd" clip-rule="evenodd" d="M144.543 4.752C140.727 8.87864 95.1742 47.8043 92.6311 53.5818C90.0881 59.3593 133.698 62.4723 138.619 51.9719C143.541 41.4715 150.061 9.81669 150.813 7.28435C151.564 4.752 148.358 0.625363 144.543 4.752Z" fill="#ADADAC" fill-opacity="0.5"/>
<path d="M167.155 31.0487C164.92 19.3207 187.268 -0.0584489 204.23 3.74294C221.192 7.54433 224 29.1406 224 29.1406C224 29.1406 223.09 39.928 215.485 39.928C207.88 39.928 210.918 31.0487 207.517 24.7639C204.115 18.479 196.691 38.6663 192.945 37.0403C189.199 35.4143 195.578 13.6137 189.572 19.2621C183.567 24.9106 169.315 40.2747 176.272 51.1791C183.229 62.0835 211.554 58.6505 213.52 52.4761" stroke="#7D7D7D" stroke-width="5" stroke-linecap="round" stroke-linejoin="round"/>
</svg>
