<svg width="68" height="71" viewBox="0 0 68 71" fill="none" xmlns="http://www.w3.org/2000/svg">
<path d="M22.7444 54.9159C22.7444 55.1893 22.429 55.4081 22.0315 55.4081C21.579 55.4491 21.2637 55.2303 21.2637 54.9159C21.2637 54.6425 21.579 54.4237 21.9766 54.4237C22.3879 54.3827 22.7444 54.6014 22.7444 54.9159ZM18.4806 54.3007C18.3847 54.5741 18.6589 54.8885 19.0702 54.9706C19.4266 55.1073 19.8379 54.9706 19.9202 54.6971C20.0024 54.4237 19.7419 54.1093 19.3306 53.9862C18.9742 53.8905 18.5766 54.0272 18.4806 54.3007ZM24.5403 54.0682C24.1427 54.1639 23.8685 54.4237 23.9097 54.7382C23.9508 55.0116 24.3073 55.1893 24.7185 55.0936C25.1161 54.9979 25.3903 54.7382 25.3492 54.4647C25.3081 54.205 24.9379 54.0272 24.5403 54.0682ZM33.5613 1.67761C14.546 1.67761 0 16.0741 0 35.037C0 50.1991 9.56936 63.1737 23.2379 67.7401C24.9927 68.0546 25.6097 66.9745 25.6097 66.0858C25.6097 65.2382 25.5685 60.5624 25.5685 57.6913C25.5685 57.6913 15.9718 59.7421 13.9565 53.6171C13.9565 53.6171 12.3935 49.6385 10.1452 48.6132C10.1452 48.6132 7.00565 46.4667 10.3645 46.5077C10.3645 46.5077 13.7782 46.7811 15.6565 50.035C18.6589 55.3124 23.6903 53.7948 25.6508 52.8925C25.9661 50.705 26.8573 49.1874 27.8444 48.285C20.1806 47.4374 12.4484 46.33 12.4484 33.1776C12.4484 29.4178 13.4903 27.5311 15.6839 25.1249C15.3274 24.2362 14.1621 20.5721 16.0403 15.8417C18.9056 14.953 25.5 19.5331 25.5 19.5331C28.2419 18.7675 31.1895 18.371 34.1097 18.371C37.0298 18.371 39.9774 18.7675 42.7194 19.5331C42.7194 19.5331 49.3137 14.9393 52.179 15.8417C54.0573 20.5858 52.8919 24.2362 52.5355 25.1249C54.729 27.5448 56.0726 29.4315 56.0726 33.1776C56.0726 46.371 47.9976 47.4237 40.3339 48.285C41.5952 49.3651 42.6645 51.4159 42.6645 54.6288C42.6645 59.2362 42.6234 64.9374 42.6234 66.0585C42.6234 66.9471 43.254 68.0272 44.9952 67.7128C58.7048 63.1737 68 50.1991 68 35.037C68 16.0741 52.5766 1.67761 33.5613 1.67761ZM13.3258 48.8319C13.1476 48.9686 13.1887 49.2831 13.4218 49.5428C13.6411 49.7616 13.9565 49.8573 14.1347 49.6796C14.3129 49.5428 14.2718 49.2284 14.0387 48.9686C13.8194 48.7499 13.504 48.6542 13.3258 48.8319ZM11.8452 47.7245C11.7492 47.9022 11.8863 48.121 12.1605 48.2577C12.3798 48.3944 12.654 48.3534 12.75 48.162C12.846 47.9843 12.7089 47.7655 12.4347 47.6288C12.1605 47.5468 11.9411 47.5878 11.8452 47.7245ZM16.2871 52.5917C16.0677 52.7694 16.15 53.1796 16.4653 53.4393C16.7806 53.7538 17.1782 53.7948 17.3565 53.5761C17.5347 53.3983 17.4524 52.9882 17.1782 52.7284C16.8766 52.4139 16.4653 52.3729 16.2871 52.5917ZM14.7242 50.5819C14.5048 50.7186 14.5048 51.0741 14.7242 51.3886C14.9435 51.703 15.3137 51.8397 15.4919 51.703C15.7113 51.5253 15.7113 51.1698 15.4919 50.8553C15.3 50.5409 14.9435 50.4042 14.7242 50.5819Z" fill="#7BABCA"/>
</svg>
