<svg width="61" height="71" viewBox="0 0 61 71" fill="none" xmlns="http://www.w3.org/2000/svg">
<g clip-path="url(#clip0)">
<path d="M30.5136 19.8612C21.8538 19.8612 14.8687 26.8749 14.8687 35.5702C14.8687 44.2655 21.8538 51.2792 30.5136 51.2792C39.1734 51.2792 46.1584 44.2655 46.1584 35.5702C46.1584 26.8749 39.1734 19.8612 30.5136 19.8612ZM30.5136 45.7831C24.9174 45.7831 20.3424 41.203 20.3424 35.5702C20.3424 29.9374 24.9038 25.3573 30.5136 25.3573C36.1234 25.3573 40.6848 29.9374 40.6848 35.5702C40.6848 41.203 36.1098 45.7831 30.5136 45.7831V45.7831ZM50.4475 19.2186C50.4475 21.2557 48.8136 22.8827 46.7984 22.8827C44.7696 22.8827 43.1493 21.2421 43.1493 19.2186C43.1493 17.1952 44.7832 15.5546 46.7984 15.5546C48.8136 15.5546 50.4475 17.1952 50.4475 19.2186ZM60.8093 22.9374C60.5779 18.0292 59.4613 13.6815 55.8803 10.0995C52.3129 6.51746 47.983 5.39636 43.0948 5.15027C38.0569 4.86316 22.9567 4.86316 17.9187 5.15027C13.0442 5.38269 8.71424 6.50378 5.13322 10.0858C1.55219 13.6678 0.449288 18.0155 0.204199 22.9237C-0.0817383 27.9823 -0.0817383 43.1444 0.204199 48.203C0.435672 53.1112 1.55219 57.4589 5.13322 61.0409C8.71424 64.6229 13.0305 65.744 17.9187 65.9901C22.9567 66.2772 38.0569 66.2772 43.0948 65.9901C47.983 65.7577 52.3129 64.6366 55.8803 61.0409C59.4477 57.4589 60.5642 53.1112 60.8093 48.203C61.0953 43.1444 61.0953 27.996 60.8093 22.9374V22.9374ZM54.3009 53.6307C53.2388 56.3104 51.1828 58.3749 48.5004 59.455C44.4837 61.0546 34.9524 60.6854 30.5136 60.6854C26.0747 60.6854 16.5299 61.0409 12.5267 59.455C9.85799 58.3886 7.80197 56.3241 6.7263 53.6307C5.13322 49.5975 5.50085 40.0272 5.50085 35.5702C5.50085 31.1132 5.14683 21.5292 6.7263 17.5096C7.78835 14.83 9.84438 12.7655 12.5267 11.6854C16.5435 10.0858 26.0747 10.455 30.5136 10.455C34.9524 10.455 44.4973 10.0995 48.5004 11.6854C51.1692 12.7518 53.2252 14.8163 54.3009 17.5096C55.8939 21.5428 55.5263 31.1132 55.5263 35.5702C55.5263 40.0272 55.8939 49.6112 54.3009 53.6307Z" fill="#7BABCA"/>
</g>
<defs>
<clipPath id="clip0">
<rect width="61" height="70" fill="white" transform="translate(0 0.583862)"/>
</clipPath>
</defs>
</svg>
