<svg width="28" height="32" viewBox="0 0 28 32" fill="none" xmlns="http://www.w3.org/2000/svg">
<path d="M6.2675 28.0011H0.4625V9.30739H6.2675V28.0011ZM3.36188 6.75739C1.50563 6.75739 0 5.21989 0 3.36364C1.32862e-08 2.47202 0.354197 1.61691 0.98467 0.98644C1.61514 0.355966 2.47025 0.00177002 3.36188 0.00177002C4.2535 0.00177002 5.10861 0.355966 5.73908 0.98644C6.36955 1.61691 6.72375 2.47202 6.72375 3.36364C6.72375 5.21989 5.2175 6.75739 3.36188 6.75739ZM27.9937 28.0011H22.2013V18.9011C22.2013 16.7324 22.1575 13.9511 19.1831 13.9511C16.165 13.9511 15.7025 16.3074 15.7025 18.7449V28.0011H9.90375V9.30739H15.4712V11.8574H15.5525C16.3275 10.3886 18.2206 8.83864 21.045 8.83864C26.92 8.83864 28 12.7074 28 17.7324V28.0011H27.9937Z" fill="#7BABCA"/>
</svg>
