<svg width="61" height="71" viewBox="0 0 61 71" fill="none" xmlns="http://www.w3.org/2000/svg">
<g clip-path="url(#clip0)">
<path d="M13.6542 61.8353H1.00759V20.9427H13.6542V61.8353ZM7.32409 15.3646C3.28011 15.3646 0 12.0013 0 7.94076C2.8945e-08 5.99033 0.771642 4.11978 2.14517 2.74062C3.51871 1.36146 5.38162 0.586655 7.32409 0.586655C9.26655 0.586655 11.1295 1.36146 12.503 2.74062C13.8765 4.11978 14.6482 5.99033 14.6482 7.94076C14.6482 12.0013 11.3667 15.3646 7.32409 15.3646ZM60.9864 61.8353H48.367V41.929C48.367 37.1849 48.2717 31.1009 41.7918 31.1009C35.2166 31.1009 34.209 36.2552 34.209 41.5872V61.8353H21.576V20.9427H33.7052V26.5208H33.8822C35.5706 23.3079 39.6949 19.9173 45.848 19.9173C58.6471 19.9173 61 28.3802 61 39.3724V61.8353H60.9864Z" fill="#7BABCA"/>
</g>
<defs>
<clipPath id="clip0">
<rect width="61" height="70" fill="white" transform="translate(0 0.583862)"/>
</clipPath>
</defs>
</svg>
