<svg width="68" height="71" viewBox="0 0 68 71" fill="none" xmlns="http://www.w3.org/2000/svg">
<path d="M68 35.5839C68 54.3143 52.7823 69.4901 34 69.4901C30.4903 69.4901 27.1177 68.9569 23.9371 67.9725C25.3218 65.7167 27.3919 62.0253 28.1597 59.0858C28.571 57.4999 30.271 51.0194 30.271 51.0194C31.3815 53.1249 34.6169 54.9159 38.0581 54.9159C48.3129 54.9159 55.7024 45.5096 55.7024 33.8202C55.7024 22.6229 46.5306 14.2421 34.7403 14.2421C20.071 14.2421 12.2702 24.0585 12.2702 34.7635C12.2702 39.7401 14.9298 45.9335 19.1661 47.9022C19.8105 48.203 20.1532 48.0663 20.304 47.451C20.4137 46.9862 20.9895 44.6757 21.25 43.6093C21.3323 43.2675 21.2911 42.9667 21.0169 42.6386C19.6323 40.9296 18.5081 37.8124 18.5081 34.9003C18.5081 27.4218 24.1839 20.1893 33.8629 20.1893C42.2121 20.1893 48.0661 25.8632 48.0661 33.9843C48.0661 43.1581 43.4186 49.5155 37.3726 49.5155C34.0411 49.5155 31.5323 46.7675 32.3411 43.3905C33.3008 39.3573 35.1516 35.0096 35.1516 32.0975C35.1516 29.4999 33.7532 27.3261 30.8468 27.3261C27.4331 27.3261 24.6911 30.8397 24.6911 35.5565C24.6911 38.5643 25.7056 40.5878 25.7056 40.5878C25.7056 40.5878 22.3468 54.7792 21.7298 57.4315C21.0444 60.3573 21.3185 64.4862 21.6065 67.1659C8.96613 62.2303 0 49.953 0 35.5839C0 16.8534 15.2177 1.67761 34 1.67761C52.7823 1.67761 68 16.8534 68 35.5839Z" fill="#7BABCA"/>
</svg>
