<svg width="170" height="112" viewBox="0 0 170 112" fill="none" xmlns="http://www.w3.org/2000/svg">
<rect x="60.5005" y="1.11945" width="49" height="49" fill="#AFD2A0" stroke="black"/>
<path d="M68.1164 26.9194H66.5764L66.4364 28.3094H65.6964L65.8364 26.9194H64.8464L64.8964 26.3794H65.8964L66.0864 24.5994H65.0764L65.1364 24.0694H66.1364L66.2864 22.6894H67.0264L66.8764 24.0694H68.4164L68.5664 22.6894H69.2964L69.1464 24.0694H70.1764L70.1164 24.5994H69.0964L68.9064 26.3794H69.9364L69.8764 26.9194H68.8464L68.7064 28.3094H67.9664L68.1164 26.9194ZM66.6364 26.3794H68.1664L68.3564 24.5994H66.8264L66.6364 26.3794ZM73.0059 22.3294H73.9659L76.0759 28.6194H75.2559L74.7159 27.0194H72.2159L71.6759 28.6194H70.8459L73.0059 22.3294ZM72.4259 26.3994H74.5159L73.4759 23.2994L72.4259 26.3994ZM77.3479 22.3294H81.1679V23.0094H78.1379V25.0994H80.9579V25.7794H78.1379V28.6194H77.3479V22.3294ZM84.432 22.3294C85.3787 22.3294 86.1354 22.6161 86.702 23.1894C87.2754 23.7561 87.562 24.5194 87.562 25.4794C87.562 26.4328 87.2754 27.1961 86.702 27.7694C86.1354 28.3361 85.3787 28.6194 84.432 28.6194H82.582V22.3294H84.432ZM83.372 27.9294H84.432C85.132 27.9294 85.6887 27.6994 86.102 27.2394C86.5154 26.7728 86.722 26.1828 86.722 25.4694C86.722 24.7561 86.512 24.1728 86.092 23.7194C85.6787 23.2594 85.1254 23.0294 84.432 23.0294H83.372V27.9294ZM89.6234 27.8894H93.2734V28.6194H88.8334V27.6894C88.8334 26.9494 89.1134 26.4061 89.6734 26.0594C89.8534 25.9461 90.0534 25.8461 90.2734 25.7594L91.5134 25.2594C92.1534 25.0061 92.4734 24.5894 92.4734 24.0094C92.4734 23.6894 92.3634 23.4294 92.1434 23.2294C91.9234 23.0228 91.6134 22.9194 91.2134 22.9194C90.82 22.9194 90.4967 23.0028 90.2434 23.1694C89.9967 23.3361 89.8534 23.5861 89.8134 23.9194H88.9434C88.9767 23.3728 89.1967 22.9528 89.6034 22.6594C90.01 22.3661 90.53 22.2194 91.1634 22.2194C91.8034 22.2194 92.3234 22.3928 92.7234 22.7394C93.1234 23.0861 93.3234 23.5161 93.3234 24.0294C93.3234 24.5361 93.19 24.9394 92.9234 25.2394C92.6634 25.5394 92.3034 25.7794 91.8434 25.9594L90.5734 26.4694C90.2534 26.6028 90.0134 26.7561 89.8534 26.9294C89.7 27.0961 89.6234 27.3161 89.6234 27.5894V27.8894ZM96.4141 22.3294H97.3741L99.4841 28.6194H98.6641L98.1241 27.0194H95.6241L95.0841 28.6194H94.2541L96.4141 22.3294ZM95.8341 26.3994H97.9241L96.8841 23.2994L95.8341 26.3994ZM102.726 22.2194C103.486 22.2194 104.086 22.4994 104.526 23.0594C104.966 23.6194 105.186 24.4261 105.186 25.4794C105.186 26.5261 104.966 27.3294 104.526 27.8894C104.086 28.4494 103.486 28.7294 102.726 28.7294C101.966 28.7294 101.363 28.4528 100.916 27.8994C100.476 27.3461 100.256 26.5394 100.256 25.4794C100.256 24.4128 100.476 23.6028 100.916 23.0494C101.363 22.4961 101.966 22.2194 102.726 22.2194ZM104.366 25.4794C104.366 24.6594 104.226 24.0328 103.946 23.5994C103.666 23.1594 103.256 22.9394 102.716 22.9394C102.183 22.9394 101.776 23.1594 101.496 23.5994C101.216 24.0328 101.076 24.6594 101.076 25.4794C101.076 26.2928 101.216 26.9194 101.496 27.3594C101.776 27.7928 102.183 28.0094 102.716 28.0094C103.256 28.0094 103.666 27.7928 103.946 27.3594C104.226 26.9194 104.366 26.2928 104.366 25.4794Z" fill="black"/>
<rect x="60.5" y="61.1194" width="49" height="49" fill="#F7F7F7" stroke="black"/>
<path d="M70.7531 86.9194H69.2131L69.0731 88.3094H68.3331L68.4731 86.9194H67.4831L67.5331 86.3794H68.5331L68.7231 84.5994H67.7131L67.7731 84.0694H68.7731L68.9231 82.6894H69.6631L69.5131 84.0694H71.0531L71.2031 82.6894H71.9331L71.7831 84.0694H72.8131L72.7531 84.5994H71.7331L71.5431 86.3794H72.5731L72.5131 86.9194H71.4831L71.3431 88.3094H70.6031L70.7531 86.9194ZM69.2731 86.3794H70.8031L70.9931 84.5994H69.4631L69.2731 86.3794ZM74.2327 82.3294H78.0527V83.0094H75.0227V85.0994H77.8427V85.7794H75.0227V88.6194H74.2327V82.3294ZM82.9868 82.3294V83.0594L80.1068 88.6194H79.0468L82.0668 83.0894H78.7068V82.3294H82.9868ZM84.1741 82.3294H87.9941V83.0094H84.9641V85.0994H87.7841V85.7794H84.9641V88.6194H84.1741V82.3294ZM92.9282 82.3294V83.0594L90.0482 88.6194H88.9882L92.0082 83.0894H88.6482V82.3294H92.9282ZM94.1155 82.3294H97.9355V83.0094H94.9055V85.0994H97.7255V85.7794H94.9055V88.6194H94.1155V82.3294ZM102.87 82.3294V83.0594L99.9896 88.6194H98.9296L101.95 83.0894H98.5896V82.3294H102.87Z" fill="black"/>
<rect x="120.5" y="61.1194" width="49" height="49" fill="#E9FF8E" stroke="black"/>
<path d="M128.824 87.4194H127.284L127.144 88.8094H126.404L126.544 87.4194H125.554L125.604 86.8794H126.604L126.794 85.0994H125.784L125.844 84.5694H126.844L126.994 83.1894H127.734L127.584 84.5694H129.124L129.274 83.1894H130.004L129.854 84.5694H130.884L130.824 85.0994H129.804L129.614 86.8794H130.644L130.584 87.4194H129.554L129.414 88.8094H128.674L128.824 87.4194ZM127.344 86.8794H128.874L129.064 85.0994H127.534L127.344 86.8794ZM132.294 82.8294H136.164V83.5094H133.084V85.6194H135.984V86.2894H133.084V88.4294H136.164V89.1194H132.294V82.8294ZM139.729 82.7194C140.069 82.7194 140.393 82.7928 140.699 82.9394C141.006 83.0861 141.269 83.2961 141.489 83.5694C141.969 84.1561 142.209 84.9194 142.209 85.8594C142.209 87.4928 141.756 88.5394 140.849 88.9994C140.536 89.1528 140.196 89.2294 139.829 89.2294C139.143 89.2294 138.599 89.0428 138.199 88.6694C137.799 88.2961 137.599 87.8261 137.599 87.2594H138.429C138.443 87.6394 138.563 87.9428 138.789 88.1694C139.016 88.3961 139.303 88.5094 139.649 88.5094C139.996 88.5094 140.276 88.4461 140.489 88.3194C141.096 87.9394 141.399 87.0828 141.399 85.7494C141.399 85.4761 141.383 85.2294 141.349 85.0094C141.283 85.5494 141.086 85.9528 140.759 86.2194C140.439 86.4861 140.016 86.6194 139.489 86.6194C138.969 86.6194 138.519 86.4361 138.139 86.0694C137.759 85.6961 137.569 85.2228 137.569 84.6494C137.569 84.0694 137.766 83.6028 138.159 83.2494C138.553 82.8961 139.076 82.7194 139.729 82.7194ZM140.639 83.7894C140.393 83.5628 140.079 83.4494 139.699 83.4494C139.319 83.4494 139.006 83.5594 138.759 83.7794C138.513 83.9994 138.389 84.3028 138.389 84.6894C138.389 85.0761 138.513 85.3794 138.759 85.5994C139.013 85.8194 139.326 85.9294 139.699 85.9294C140.079 85.9294 140.393 85.8128 140.639 85.5794C140.893 85.3394 141.019 85.0361 141.019 84.6694C141.019 84.3028 140.893 84.0094 140.639 83.7894ZM143.73 82.8294H147.55V83.5094H144.52V85.5994H147.34V86.2794H144.52V89.1194H143.73V82.8294ZM148.974 82.8294H152.794V83.5094H149.764V85.5994H152.584V86.2794H149.764V89.1194H148.974V82.8294ZM155.218 85.9394C154.385 85.5594 153.968 85.0428 153.968 84.3894C153.968 83.8894 154.175 83.4861 154.588 83.1794C155.001 82.8728 155.548 82.7194 156.228 82.7194C156.915 82.7194 157.478 82.8828 157.918 83.2094C158.358 83.5361 158.578 83.9561 158.578 84.4694C158.578 84.8161 158.461 85.1261 158.228 85.3994C158.001 85.6728 157.665 85.8428 157.218 85.9094L157.388 85.9694C157.848 86.1428 158.201 86.3494 158.448 86.5894C158.695 86.8228 158.818 87.1428 158.818 87.5494C158.818 88.0561 158.591 88.4628 158.138 88.7694C157.691 89.0761 157.085 89.2294 156.318 89.2294C155.558 89.2294 154.941 89.0594 154.468 88.7194C153.995 88.3794 153.758 87.9528 153.758 87.4394C153.758 87.0261 153.891 86.6894 154.158 86.4294C154.431 86.1694 154.785 86.0061 155.218 85.9394ZM155.968 86.2294C155.548 86.2761 155.211 86.4094 154.958 86.6294C154.705 86.8428 154.578 87.1094 154.578 87.4294C154.578 87.7494 154.738 88.0094 155.058 88.2094C155.378 88.4094 155.795 88.5094 156.308 88.5094C156.828 88.5094 157.238 88.4228 157.538 88.2494C157.845 88.0761 157.998 87.8661 157.998 87.6194C157.998 87.3728 157.918 87.1761 157.758 87.0294C157.598 86.8761 157.378 86.7494 157.098 86.6494L155.968 86.2294ZM154.798 84.4894C154.798 84.6694 154.871 84.8261 155.018 84.9594C155.165 85.0861 155.375 85.2028 155.648 85.3094L156.378 85.5894C156.778 85.5761 157.108 85.4728 157.368 85.2794C157.628 85.0794 157.758 84.8228 157.758 84.5094C157.758 84.1894 157.621 83.9328 157.348 83.7394C157.075 83.5394 156.721 83.4394 156.288 83.4394C155.855 83.4394 155.498 83.5361 155.218 83.7294C154.938 83.9161 154.798 84.1694 154.798 84.4894ZM160.36 82.8294H164.23V83.5094H161.15V85.6194H164.05V86.2894H161.15V88.4294H164.23V89.1194H160.36V82.8294Z" fill="black"/>
<rect x="120.5" y="1.11945" width="49" height="49" fill="#B892FF" stroke="black"/>
<path d="M128.429 26.9194H126.889L126.749 28.3094H126.009L126.149 26.9194H125.159L125.209 26.3794H126.209L126.399 24.5994H125.389L125.449 24.0694H126.449L126.599 22.6894H127.339L127.189 24.0694H128.729L128.879 22.6894H129.609L129.459 24.0694H130.489L130.429 24.5994H129.409L129.219 26.3794H130.249L130.189 26.9194H129.159L129.019 28.3094H128.279L128.429 26.9194ZM126.949 26.3794H128.479L128.669 24.5994H127.139L126.949 26.3794ZM131.909 22.3294H134.259C134.919 22.3294 135.426 22.4861 135.779 22.7994C136.139 23.1128 136.319 23.5061 136.319 23.9794C136.319 24.3394 136.219 24.6528 136.019 24.9194C135.826 25.1861 135.529 25.3661 135.129 25.4594C135.522 25.5261 135.836 25.6961 136.069 25.9694C136.309 26.2428 136.429 26.5528 136.429 26.8994C136.429 27.6728 136.052 28.1961 135.299 28.4694C135.019 28.5694 134.676 28.6194 134.269 28.6194H131.909V22.3294ZM134.249 27.9294C134.729 27.9294 135.072 27.8328 135.279 27.6394C135.486 27.4461 135.589 27.1894 135.589 26.8694C135.589 26.5494 135.476 26.2961 135.249 26.1094C135.022 25.9161 134.689 25.8194 134.249 25.8194H132.699V27.9294H134.249ZM132.699 25.1394H134.239C134.626 25.1394 134.932 25.0461 135.159 24.8594C135.392 24.6661 135.509 24.4028 135.509 24.0694C135.509 23.7361 135.396 23.4761 135.169 23.2894C134.949 23.1028 134.639 23.0094 134.239 23.0094H132.699V25.1394ZM139.13 25.4394C138.296 25.0594 137.88 24.5428 137.88 23.8894C137.88 23.3894 138.086 22.9861 138.5 22.6794C138.913 22.3728 139.46 22.2194 140.14 22.2194C140.826 22.2194 141.39 22.3828 141.83 22.7094C142.27 23.0361 142.49 23.4561 142.49 23.9694C142.49 24.3161 142.373 24.6261 142.14 24.8994C141.913 25.1728 141.576 25.3428 141.13 25.4094L141.3 25.4694C141.76 25.6428 142.113 25.8494 142.36 26.0894C142.606 26.3228 142.73 26.6428 142.73 27.0494C142.73 27.5561 142.503 27.9628 142.05 28.2694C141.603 28.5761 140.996 28.7294 140.23 28.7294C139.47 28.7294 138.853 28.5594 138.38 28.2194C137.906 27.8794 137.67 27.4528 137.67 26.9394C137.67 26.5261 137.803 26.1894 138.07 25.9294C138.343 25.6694 138.696 25.5061 139.13 25.4394ZM139.88 25.7294C139.46 25.7761 139.123 25.9094 138.87 26.1294C138.616 26.3428 138.49 26.6094 138.49 26.9294C138.49 27.2494 138.65 27.5094 138.97 27.7094C139.29 27.9094 139.706 28.0094 140.22 28.0094C140.74 28.0094 141.15 27.9228 141.45 27.7494C141.756 27.5761 141.91 27.3661 141.91 27.1194C141.91 26.8728 141.83 26.6761 141.67 26.5294C141.51 26.3761 141.29 26.2494 141.01 26.1494L139.88 25.7294ZM138.71 23.9894C138.71 24.1694 138.783 24.3261 138.93 24.4594C139.076 24.5861 139.286 24.7028 139.56 24.8094L140.29 25.0894C140.69 25.0761 141.02 24.9728 141.28 24.7794C141.54 24.5794 141.67 24.3228 141.67 24.0094C141.67 23.6894 141.533 23.4328 141.26 23.2394C140.986 23.0394 140.633 22.9394 140.2 22.9394C139.766 22.9394 139.41 23.0361 139.13 23.2294C138.85 23.4161 138.71 23.6694 138.71 23.9894ZM146.092 22.2194C146.432 22.2194 146.755 22.2928 147.062 22.4394C147.369 22.5861 147.632 22.7961 147.852 23.0694C148.332 23.6561 148.572 24.4194 148.572 25.3594C148.572 26.9928 148.119 28.0394 147.212 28.4994C146.899 28.6528 146.559 28.7294 146.192 28.7294C145.505 28.7294 144.962 28.5428 144.562 28.1694C144.162 27.7961 143.962 27.3261 143.962 26.7594H144.792C144.805 27.1394 144.925 27.4428 145.152 27.6694C145.379 27.8961 145.665 28.0094 146.012 28.0094C146.359 28.0094 146.639 27.9461 146.852 27.8194C147.459 27.4394 147.762 26.5828 147.762 25.2494C147.762 24.9761 147.745 24.7294 147.712 24.5094C147.645 25.0494 147.449 25.4528 147.122 25.7194C146.802 25.9861 146.379 26.1194 145.852 26.1194C145.332 26.1194 144.882 25.9361 144.502 25.5694C144.122 25.1961 143.932 24.7228 143.932 24.1494C143.932 23.5694 144.129 23.1028 144.522 22.7494C144.915 22.3961 145.439 22.2194 146.092 22.2194ZM147.002 23.2894C146.755 23.0628 146.442 22.9494 146.062 22.9494C145.682 22.9494 145.369 23.0594 145.122 23.2794C144.875 23.4994 144.752 23.8028 144.752 24.1894C144.752 24.5761 144.875 24.8794 145.122 25.0994C145.375 25.3194 145.689 25.4294 146.062 25.4294C146.442 25.4294 146.755 25.3128 147.002 25.0794C147.255 24.8394 147.382 24.5361 147.382 24.1694C147.382 23.8028 147.255 23.5094 147.002 23.2894ZM150.513 27.8894H154.163V28.6194H149.723V27.6894C149.723 26.9494 150.003 26.4061 150.563 26.0594C150.743 25.9461 150.943 25.8461 151.163 25.7594L152.403 25.2594C153.043 25.0061 153.363 24.5894 153.363 24.0094C153.363 23.6894 153.253 23.4294 153.033 23.2294C152.813 23.0228 152.503 22.9194 152.103 22.9194C151.709 22.9194 151.386 23.0028 151.133 23.1694C150.886 23.3361 150.743 23.5861 150.703 23.9194H149.833C149.866 23.3728 150.086 22.9528 150.493 22.6594C150.899 22.3661 151.419 22.2194 152.053 22.2194C152.693 22.2194 153.213 22.3928 153.613 22.7394C154.013 23.0861 154.213 23.5161 154.213 24.0294C154.213 24.5361 154.079 24.9394 153.813 25.2394C153.553 25.5394 153.193 25.7794 152.733 25.9594L151.463 26.4694C151.143 26.6028 150.903 26.7561 150.743 26.9294C150.589 27.0961 150.513 27.3161 150.513 27.5894V27.8894ZM155.893 22.3294H159.713V23.0094H156.683V25.0994H159.503V25.7794H156.683V28.6194H155.893V22.3294ZM161.137 22.3294H164.957V23.0094H161.927V25.0994H164.747V25.7794H161.927V28.6194H161.137V22.3294Z" fill="black"/>
<rect x="0.5" y="61.1194" width="49" height="49" fill="#8AC8EB" stroke="black"/>
<path d="M7.65254 87.1694H6.11254L5.97254 88.5594H5.23254L5.37254 87.1694H4.38254L4.43254 86.6294H5.43254L5.62254 84.8494H4.61254L4.67254 84.3194H5.67254L5.82254 82.9394H6.56254L6.41254 84.3194H7.95254L8.10254 82.9394H8.83254L8.68254 84.3194H9.71254L9.65254 84.8494H8.63254L8.44254 86.6294H9.47254L9.41254 87.1694H8.38254L8.24254 88.5594H7.50254L7.65254 87.1694ZM6.17254 86.6294H7.70254L7.89254 84.8494H6.36254L6.17254 86.6294ZM12.1321 85.6894C11.2987 85.3094 10.8821 84.7928 10.8821 84.1394C10.8821 83.6394 11.0887 83.2361 11.5021 82.9294C11.9154 82.6228 12.4621 82.4694 13.1421 82.4694C13.8287 82.4694 14.3921 82.6328 14.8321 82.9594C15.2721 83.2861 15.4921 83.7061 15.4921 84.2194C15.4921 84.5661 15.3754 84.8761 15.1421 85.1494C14.9154 85.4228 14.5787 85.5928 14.1321 85.6594L14.3021 85.7194C14.7621 85.8928 15.1154 86.0994 15.3621 86.3394C15.6087 86.5728 15.7321 86.8928 15.7321 87.2994C15.7321 87.8061 15.5054 88.2128 15.0521 88.5194C14.6054 88.8261 13.9987 88.9794 13.2321 88.9794C12.4721 88.9794 11.8554 88.8094 11.3821 88.4694C10.9087 88.1294 10.6721 87.7028 10.6721 87.1894C10.6721 86.7761 10.8054 86.4394 11.0721 86.1794C11.3454 85.9194 11.6987 85.7561 12.1321 85.6894ZM12.8821 85.9794C12.4621 86.0261 12.1254 86.1594 11.8721 86.3794C11.6187 86.5928 11.4921 86.8594 11.4921 87.1794C11.4921 87.4994 11.6521 87.7594 11.9721 87.9594C12.2921 88.1594 12.7087 88.2594 13.2221 88.2594C13.7421 88.2594 14.1521 88.1728 14.4521 87.9994C14.7587 87.8261 14.9121 87.6161 14.9121 87.3694C14.9121 87.1228 14.8321 86.9261 14.6721 86.7794C14.5121 86.6261 14.2921 86.4994 14.0121 86.3994L12.8821 85.9794ZM11.7121 84.2394C11.7121 84.4194 11.7854 84.5761 11.9321 84.7094C12.0787 84.8361 12.2887 84.9528 12.5621 85.0594L13.2921 85.3394C13.6921 85.3261 14.0221 85.2228 14.2821 85.0294C14.5421 84.8294 14.6721 84.5728 14.6721 84.2594C14.6721 83.9394 14.5354 83.6828 14.2621 83.4894C13.9887 83.2894 13.6354 83.1894 13.2021 83.1894C12.7687 83.1894 12.4121 83.2861 12.1321 83.4794C11.8521 83.6661 11.7121 83.9194 11.7121 84.2394ZM18.6944 82.5794H19.6544L21.7644 88.8694H20.9444L20.4044 87.2694H17.9044L17.3644 88.8694H16.5344L18.6944 82.5794ZM18.1144 86.6494H20.2044L19.1644 83.5494L18.1144 86.6494ZM25.2164 82.4694C25.8897 82.4694 26.4297 82.6394 26.8364 82.9794C27.2497 83.3128 27.533 83.7494 27.6864 84.2894L26.8364 84.4594C26.703 84.0661 26.493 83.7561 26.2064 83.5294C25.9264 83.2961 25.5964 83.1794 25.2164 83.1794C24.6897 83.1794 24.253 83.3994 23.9064 83.8394C23.5597 84.2794 23.3864 84.8928 23.3864 85.6794C23.3864 86.4594 23.5397 87.0861 23.8464 87.5594C24.1597 88.0328 24.6164 88.2694 25.2164 88.2694C25.7164 88.2694 26.1097 88.1394 26.3964 87.8794C26.6897 87.6128 26.8364 87.2628 26.8364 86.8294H27.6864C27.6864 87.4894 27.4597 88.0128 27.0064 88.3994C26.5597 88.7861 25.943 88.9794 25.1564 88.9794C24.3764 88.9794 23.743 88.6794 23.2564 88.0794C22.7764 87.4794 22.5364 86.6761 22.5364 85.6694C22.5364 84.6628 22.7864 83.8794 23.2864 83.3194C23.7864 82.7528 24.4297 82.4694 25.2164 82.4694ZM30.1692 85.6894C29.3358 85.3094 28.9192 84.7928 28.9192 84.1394C28.9192 83.6394 29.1258 83.2361 29.5392 82.9294C29.9525 82.6228 30.4992 82.4694 31.1792 82.4694C31.8658 82.4694 32.4292 82.6328 32.8692 82.9594C33.3092 83.2861 33.5292 83.7061 33.5292 84.2194C33.5292 84.5661 33.4125 84.8761 33.1792 85.1494C32.9525 85.4228 32.6158 85.5928 32.1692 85.6594L32.3392 85.7194C32.7992 85.8928 33.1525 86.0994 33.3992 86.3394C33.6458 86.5728 33.7692 86.8928 33.7692 87.2994C33.7692 87.8061 33.5425 88.2128 33.0892 88.5194C32.6425 88.8261 32.0358 88.9794 31.2692 88.9794C30.5092 88.9794 29.8925 88.8094 29.4192 88.4694C28.9458 88.1294 28.7092 87.7028 28.7092 87.1894C28.7092 86.7761 28.8425 86.4394 29.1092 86.1794C29.3825 85.9194 29.7358 85.7561 30.1692 85.6894ZM30.9192 85.9794C30.4992 86.0261 30.1625 86.1594 29.9092 86.3794C29.6558 86.5928 29.5292 86.8594 29.5292 87.1794C29.5292 87.4994 29.6892 87.7594 30.0092 87.9594C30.3292 88.1594 30.7458 88.2594 31.2592 88.2594C31.7792 88.2594 32.1892 88.1728 32.4892 87.9994C32.7958 87.8261 32.9492 87.6161 32.9492 87.3694C32.9492 87.1228 32.8692 86.9261 32.7092 86.7794C32.5492 86.6261 32.3292 86.4994 32.0492 86.3994L30.9192 85.9794ZM29.7492 84.2394C29.7492 84.4194 29.8225 84.5761 29.9692 84.7094C30.1158 84.8361 30.3258 84.9528 30.5992 85.0594L31.3292 85.3394C31.7292 85.3261 32.0592 85.2228 32.3192 85.0294C32.5792 84.8294 32.7092 84.5728 32.7092 84.2594C32.7092 83.9394 32.5725 83.6828 32.2992 83.4894C32.0258 83.2894 31.6725 83.1894 31.2392 83.1894C30.8058 83.1894 30.4492 83.2861 30.1692 83.4794C29.8892 83.6661 29.7492 83.9194 29.7492 84.2394ZM35.3115 82.5794H39.1815V83.2594H36.1015V85.3694H39.0015V86.0394H36.1015V88.1794H39.1815V88.8694H35.3115V82.5794ZM40.9368 82.5794H43.2868C43.9468 82.5794 44.4534 82.7361 44.8068 83.0494C45.1668 83.3628 45.3468 83.7561 45.3468 84.2294C45.3468 84.5894 45.2468 84.9028 45.0468 85.1694C44.8534 85.4361 44.5568 85.6161 44.1568 85.7094C44.5501 85.7761 44.8634 85.9461 45.0968 86.2194C45.3368 86.4928 45.4568 86.8028 45.4568 87.1494C45.4568 87.9228 45.0801 88.4461 44.3268 88.7194C44.0468 88.8194 43.7034 88.8694 43.2968 88.8694H40.9368V82.5794ZM43.2768 88.1794C43.7568 88.1794 44.1001 88.0828 44.3068 87.8894C44.5134 87.6961 44.6168 87.4394 44.6168 87.1194C44.6168 86.7994 44.5034 86.5461 44.2768 86.3594C44.0501 86.1661 43.7168 86.0694 43.2768 86.0694H41.7268V88.1794H43.2768ZM41.7268 85.3894H43.2668C43.6534 85.3894 43.9601 85.2961 44.1868 85.1094C44.4201 84.9161 44.5368 84.6528 44.5368 84.3194C44.5368 83.9861 44.4234 83.7261 44.1968 83.5394C43.9768 83.3528 43.6668 83.2594 43.2668 83.2594H41.7268V85.3894Z" fill="black"/>
<rect x="0.5" y="1.11945" width="49" height="49" fill="#071E22" stroke="black"/>
<path d="M10.0842 26.9194H8.54418L8.40418 28.3094H7.66418L7.80418 26.9194H6.81418L6.86418 26.3794H7.86418L8.05418 24.5994H7.04418L7.10418 24.0694H8.10418L8.25418 22.6894H8.99418L8.84418 24.0694H10.3842L10.5342 22.6894H11.2642L11.1142 24.0694H12.1442L12.0842 24.5994H11.0642L10.8742 26.3794H11.9042L11.8442 26.9194H10.8142L10.6742 28.3094H9.93418L10.0842 26.9194ZM8.60418 26.3794H10.1342L10.3242 24.5994H8.79418L8.60418 26.3794ZM15.5337 22.2194C16.2937 22.2194 16.8937 22.4994 17.3337 23.0594C17.7737 23.6194 17.9937 24.4261 17.9937 25.4794C17.9937 26.5261 17.7737 27.3294 17.3337 27.8894C16.8937 28.4494 16.2937 28.7294 15.5337 28.7294C14.7737 28.7294 14.1704 28.4528 13.7237 27.8994C13.2837 27.3461 13.0637 26.5394 13.0637 25.4794C13.0637 24.4128 13.2837 23.6028 13.7237 23.0494C14.1704 22.4961 14.7737 22.2194 15.5337 22.2194ZM17.1737 25.4794C17.1737 24.6594 17.0337 24.0328 16.7537 23.5994C16.4737 23.1594 16.0637 22.9394 15.5237 22.9394C14.9904 22.9394 14.5837 23.1594 14.3037 23.5994C14.0237 24.0328 13.8837 24.6594 13.8837 25.4794C13.8837 26.2928 14.0237 26.9194 14.3037 27.3594C14.5837 27.7928 14.9904 28.0094 15.5237 28.0094C16.0637 28.0094 16.4737 27.7928 16.7537 27.3594C17.0337 26.9194 17.1737 26.2928 17.1737 25.4794ZM23.0112 22.3294V23.0594L20.1312 28.6194H19.0712L22.0912 23.0894H18.7312V22.3294H23.0112ZM23.6785 22.8194C24.1251 22.7594 24.5151 22.5894 24.8485 22.3094H25.4885V28.6194H24.7085V23.2494C24.3751 23.4628 24.0318 23.5794 23.6785 23.5994V22.8194ZM27.499 22.3294H31.369V23.0094H28.289V25.1194H31.189V25.7894H28.289V27.9294H31.369V28.6194H27.499V22.3294ZM33.5443 27.8894H37.1943V28.6194H32.7543V27.6894C32.7543 26.9494 33.0343 26.4061 33.5943 26.0594C33.7743 25.9461 33.9743 25.8461 34.1943 25.7594L35.4343 25.2594C36.0743 25.0061 36.3943 24.5894 36.3943 24.0094C36.3943 23.6894 36.2843 23.4294 36.0643 23.2294C35.8443 23.0228 35.5343 22.9194 35.1343 22.9194C34.7409 22.9194 34.4176 23.0028 34.1643 23.1694C33.9176 23.3361 33.7743 23.5861 33.7343 23.9194H32.8643C32.8976 23.3728 33.1176 22.9528 33.5243 22.6594C33.9309 22.3661 34.4509 22.2194 35.0843 22.2194C35.7243 22.2194 36.2443 22.3928 36.6443 22.7394C37.0443 23.0861 37.2443 23.5161 37.2443 24.0294C37.2443 24.5361 37.1109 24.9394 36.8443 25.2394C36.5843 25.5394 36.2243 25.7794 35.7643 25.9594L34.4943 26.4694C34.1743 26.6028 33.9343 26.7561 33.7743 26.9294C33.6209 27.0961 33.5443 27.3161 33.5443 27.5894V27.8894ZM39.345 27.8894H42.995V28.6194H38.555V27.6894C38.555 26.9494 38.835 26.4061 39.395 26.0594C39.575 25.9461 39.775 25.8461 39.995 25.7594L41.235 25.2594C41.875 25.0061 42.195 24.5894 42.195 24.0094C42.195 23.6894 42.085 23.4294 41.865 23.2294C41.645 23.0228 41.335 22.9194 40.935 22.9194C40.5417 22.9194 40.2184 23.0028 39.965 23.1694C39.7184 23.3361 39.575 23.5861 39.535 23.9194H38.665C38.6984 23.3728 38.9184 22.9528 39.325 22.6594C39.7317 22.3661 40.2517 22.2194 40.885 22.2194C41.525 22.2194 42.045 22.3928 42.445 22.7394C42.845 23.0861 43.045 23.5161 43.045 24.0294C43.045 24.5361 42.9117 24.9394 42.645 25.2394C42.385 25.5394 42.025 25.7794 41.565 25.9594L40.295 26.4694C39.975 26.6028 39.735 26.7561 39.575 26.9294C39.4217 27.0961 39.345 27.3161 39.345 27.5894V27.8894Z" fill="white"/>
</svg>
