<svg width="764" height="125" viewBox="0 0 764 125" fill="none" xmlns="http://www.w3.org/2000/svg">
<rect x="155.863" y="0.561035" width="135.644" height="123.849" fill="#FFAB49"/>
<path d="M192.451 65.382H191.193V63.784H192.638L192.876 61.914H191.533V60.316H193.08L193.437 57.511H194.865L194.525 60.316H196.293L196.65 57.511H198.078L197.738 60.316H199.081V61.914H197.534L197.313 63.784H198.741V65.382H197.126L196.735 68.561H195.29L195.664 65.382H193.913L193.522 68.561H192.077L192.451 65.382ZM195.851 63.784L196.089 61.914H194.321L194.1 63.784H195.851ZM205.597 63.971L205.342 62.951C205.184 62.3957 205.031 61.8064 204.883 61.183C204.736 60.5597 204.589 59.959 204.441 59.381H204.373C204.237 59.9704 204.096 60.5767 203.948 61.2C203.812 61.812 203.665 62.3957 203.506 62.951L203.234 63.971H205.597ZM206.107 65.926H202.724L202.044 68.561H199.494L202.962 57.477H205.971L209.439 68.561H206.787L206.107 65.926ZM210.65 57.477H217.637V59.585H213.149V62.152H216.991V64.26H213.149V68.561H210.65V57.477ZM219.565 57.477H222.693C223.543 57.477 224.308 57.5847 224.988 57.8C225.668 58.0154 226.252 58.3497 226.739 58.803C227.227 59.245 227.601 59.8117 227.861 60.503C228.122 61.1944 228.252 62.016 228.252 62.968C228.252 63.92 228.122 64.7474 227.861 65.45C227.601 66.1527 227.232 66.7364 226.756 67.201C226.28 67.6544 225.708 67.9944 225.039 68.221C224.382 68.4477 223.645 68.561 222.829 68.561H219.565V57.477ZM222.54 66.538C223.016 66.538 223.447 66.4757 223.832 66.351C224.218 66.2264 224.546 66.028 224.818 65.756C225.09 65.4727 225.3 65.1044 225.447 64.651C225.606 64.1977 225.685 63.6367 225.685 62.968C225.685 62.3107 225.606 61.761 225.447 61.319C225.3 60.8657 225.09 60.5087 224.818 60.248C224.546 59.976 224.218 59.7834 223.832 59.67C223.447 59.5567 223.016 59.5 222.54 59.5H222.064V66.538H222.54ZM229.676 67.133C230.368 66.487 230.997 65.8864 231.563 65.331C232.141 64.7644 232.634 64.2374 233.042 63.75C233.462 63.2514 233.785 62.7924 234.011 62.373C234.249 61.9424 234.368 61.5344 234.368 61.149C234.368 60.6164 234.232 60.214 233.96 59.942C233.688 59.6587 233.314 59.517 232.838 59.517C232.442 59.517 232.09 59.6304 231.784 59.857C231.478 60.0724 231.189 60.3274 230.917 60.622L229.557 59.279C230.09 58.7124 230.634 58.2874 231.189 58.004C231.745 57.7094 232.408 57.562 233.178 57.562C233.711 57.562 234.193 57.647 234.623 57.817C235.065 57.9757 235.445 58.208 235.762 58.514C236.08 58.8087 236.323 59.1657 236.493 59.585C236.663 60.0044 236.748 60.4747 236.748 60.996C236.748 61.4494 236.652 61.914 236.459 62.39C236.267 62.8547 236.006 63.325 235.677 63.801C235.36 64.2657 234.992 64.736 234.572 65.212C234.164 65.6767 233.739 66.1357 233.297 66.589C233.569 66.555 233.87 66.5267 234.198 66.504C234.538 66.47 234.839 66.453 235.099 66.453H237.275V68.561H229.676V67.133ZM244.03 63.971L243.775 62.951C243.616 62.3957 243.463 61.8064 243.316 61.183C243.169 60.5597 243.021 59.959 242.874 59.381H242.806C242.67 59.9704 242.528 60.5767 242.381 61.2C242.245 61.812 242.098 62.3957 241.939 62.951L241.667 63.971H244.03ZM244.54 65.926H241.157L240.477 68.561H237.927L241.395 57.477H244.404L247.872 68.561H245.22L244.54 65.926ZM252.262 68.765C251.684 68.765 251.157 68.646 250.681 68.408C250.205 68.1587 249.797 67.796 249.457 67.32C249.128 66.844 248.868 66.2547 248.675 65.552C248.494 64.8494 248.403 64.039 248.403 63.121C248.403 62.203 248.494 61.3984 248.675 60.707C248.868 60.0157 249.128 59.4377 249.457 58.973C249.797 58.497 250.205 58.1457 250.681 57.919C251.157 57.681 251.684 57.562 252.262 57.562C252.84 57.562 253.367 57.681 253.843 57.919C254.319 58.1457 254.721 58.497 255.05 58.973C255.39 59.4377 255.651 60.0157 255.832 60.707C256.025 61.3984 256.121 62.203 256.121 63.121C256.121 64.039 256.025 64.8494 255.832 65.552C255.651 66.2547 255.39 66.844 255.05 67.32C254.721 67.796 254.319 68.1587 253.843 68.408C253.367 68.646 252.84 68.765 252.262 68.765ZM252.262 66.827C252.477 66.827 252.676 66.776 252.857 66.674C253.038 66.5607 253.197 66.3624 253.333 66.079C253.469 65.7957 253.571 65.416 253.639 64.94C253.718 64.464 253.758 63.8577 253.758 63.121C253.758 62.3844 253.718 61.7837 253.639 61.319C253.571 60.843 253.469 60.4747 253.333 60.214C253.197 59.942 253.038 59.755 252.857 59.653C252.676 59.551 252.477 59.5 252.262 59.5C252.058 59.5 251.865 59.551 251.684 59.653C251.503 59.755 251.344 59.942 251.208 60.214C251.072 60.4747 250.964 60.843 250.885 61.319C250.806 61.7837 250.766 62.3844 250.766 63.121C250.766 63.8577 250.806 64.464 250.885 64.94C250.964 65.416 251.072 65.7957 251.208 66.079C251.344 66.3624 251.503 66.5607 251.684 66.674C251.865 66.776 252.058 66.827 252.262 66.827Z" fill="white"/>
<rect x="627.96" y="0.561035" width="135.644" height="123.849" fill="#F7F7F7"/>
<path d="M664.547 65.195H663.215V63.503H664.745L664.997 61.523H663.575V59.831H665.213L665.591 56.861H667.103L666.743 59.831H668.615L668.993 56.861H670.505L670.145 59.831H671.567V61.523H669.929L669.695 63.503H671.207V65.195H669.497L669.083 68.561H667.553L667.949 65.195H666.095L665.681 68.561H664.151L664.547 65.195ZM668.147 63.503L668.399 61.523H666.527L666.293 63.503H668.147ZM673.499 56.825H680.897V59.057H676.145V61.775H680.213V64.007H676.145V68.561H673.499V56.825ZM684.414 68.561C684.462 67.613 684.546 66.743 684.666 65.951C684.798 65.147 684.978 64.385 685.206 63.665C685.446 62.933 685.746 62.219 686.106 61.523C686.478 60.827 686.934 60.107 687.474 59.363H682.344V57.131H690.3V58.751C689.64 59.555 689.106 60.311 688.698 61.019C688.302 61.715 687.99 62.441 687.762 63.197C687.546 63.941 687.39 64.745 687.294 65.609C687.198 66.461 687.126 67.445 687.078 68.561H684.414ZM692.448 56.825H699.846V59.057H695.094V61.775H699.162V64.007H695.094V68.561H692.448V56.825ZM703.364 68.561C703.412 67.613 703.496 66.743 703.616 65.951C703.748 65.147 703.928 64.385 704.156 63.665C704.396 62.933 704.696 62.219 705.056 61.523C705.428 60.827 705.884 60.107 706.424 59.363H701.294V57.131H709.25V58.751C708.59 59.555 708.056 60.311 707.648 61.019C707.252 61.715 706.94 62.441 706.712 63.197C706.496 63.941 706.34 64.745 706.244 65.609C706.148 66.461 706.076 67.445 706.028 68.561H703.364ZM711.397 56.825H718.795V59.057H714.043V61.775H718.111V64.007H714.043V68.561H711.397V56.825ZM722.313 68.561C722.361 67.613 722.445 66.743 722.565 65.951C722.697 65.147 722.877 64.385 723.105 63.665C723.345 62.933 723.645 62.219 724.005 61.523C724.377 60.827 724.833 60.107 725.373 59.363H720.243V57.131H728.199V58.751C727.539 59.555 727.005 60.311 726.597 61.019C726.201 61.715 725.889 62.441 725.661 63.197C725.445 63.941 725.289 64.745 725.193 65.609C725.097 66.461 725.025 67.445 724.977 68.561H722.313Z" fill="black"/>
<rect x="314.26" y="0.561035" width="135.644" height="123.849" fill="#B892FF"/>
<path d="M351.446 65.382H350.188V63.784H351.633L351.871 61.914H350.528V60.316H352.075L352.432 57.511H353.86L353.52 60.316H355.288L355.645 57.511H357.073L356.733 60.316H358.076V61.914H356.529L356.308 63.784H357.736V65.382H356.121L355.73 68.561H354.285L354.659 65.382H352.908L352.517 68.561H351.072L351.446 65.382ZM354.846 63.784L355.084 61.914H353.316L353.095 63.784H354.846ZM361.294 68.561C361.34 67.6657 361.419 66.844 361.532 66.096C361.657 65.3367 361.827 64.617 362.042 63.937C362.269 63.2457 362.552 62.5714 362.892 61.914C363.244 61.2567 363.674 60.5767 364.184 59.874H359.339V57.766H366.853V59.296C366.23 60.0554 365.726 60.7694 365.34 61.438C364.966 62.0954 364.672 62.781 364.456 63.495C364.252 64.1977 364.105 64.957 364.014 65.773C363.924 66.5777 363.856 67.507 363.81 68.561H361.294ZM370.276 68.561C370.321 67.6657 370.4 66.844 370.514 66.096C370.638 65.3367 370.808 64.617 371.024 63.937C371.25 63.2457 371.534 62.5714 371.874 61.914C372.225 61.2567 372.656 60.5767 373.166 59.874H368.321V57.766H375.835V59.296C375.211 60.0554 374.707 60.7694 374.322 61.438C373.948 62.0954 373.653 62.781 373.438 63.495C373.234 64.1977 373.086 64.957 372.996 65.773C372.905 66.5777 372.837 67.507 372.792 68.561H370.276ZM380.838 62.747C381.11 62.747 381.388 62.6677 381.671 62.509C381.955 62.3504 382.215 62.0727 382.453 61.676C382.34 60.826 382.125 60.2424 381.807 59.925C381.501 59.5964 381.156 59.432 380.77 59.432C380.408 59.432 380.09 59.5737 379.818 59.857C379.546 60.129 379.41 60.571 379.41 61.183C379.41 61.761 379.546 62.169 379.818 62.407C380.09 62.6337 380.43 62.747 380.838 62.747ZM378.611 65.977C378.793 66.181 379.036 66.3624 379.342 66.521C379.648 66.6684 379.96 66.742 380.277 66.742C380.583 66.742 380.867 66.6854 381.127 66.572C381.388 66.4587 381.615 66.2717 381.807 66.011C382.011 65.739 382.17 65.3934 382.283 64.974C382.408 64.5434 382.482 64.0107 382.504 63.376C382.368 63.5574 382.21 63.7217 382.028 63.869C381.847 64.005 381.66 64.124 381.467 64.226C381.275 64.3167 381.082 64.3904 380.889 64.447C380.697 64.4924 380.515 64.515 380.345 64.515C379.881 64.515 379.45 64.447 379.053 64.311C378.668 64.175 378.334 63.971 378.05 63.699C377.767 63.427 377.54 63.0814 377.37 62.662C377.212 62.2427 377.132 61.7497 377.132 61.183C377.132 60.6277 377.229 60.129 377.421 59.687C377.614 59.2337 377.869 58.8484 378.186 58.531C378.515 58.2137 378.895 57.9757 379.325 57.817C379.767 57.647 380.232 57.562 380.719 57.562C381.241 57.562 381.745 57.664 382.232 57.868C382.731 58.072 383.167 58.3894 383.541 58.82C383.927 59.2507 384.233 59.806 384.459 60.486C384.697 61.1547 384.816 61.965 384.816 62.917C384.816 63.9257 384.692 64.7984 384.442 65.535C384.204 66.2717 383.881 66.878 383.473 67.354C383.077 67.83 382.612 68.187 382.079 68.425C381.558 68.6517 381.014 68.765 380.447 68.765C379.733 68.765 379.11 68.6347 378.577 68.374C378.056 68.1134 377.625 67.813 377.285 67.473L378.611 65.977ZM388.392 65.518C388.392 65.994 388.556 66.368 388.885 66.64C389.213 66.9007 389.604 67.031 390.058 67.031C390.477 67.031 390.823 66.9234 391.095 66.708C391.367 66.4814 391.503 66.1414 391.503 65.688C391.503 65.45 391.446 65.246 391.333 65.076C391.231 64.906 391.078 64.753 390.874 64.617C390.67 64.4697 390.426 64.3337 390.143 64.209C389.871 64.0844 389.565 63.9484 389.225 63.801C388.987 64.0277 388.788 64.2884 388.63 64.583C388.471 64.8777 388.392 65.1894 388.392 65.518ZM390.687 62.271C391.129 61.761 391.35 61.234 391.35 60.69C391.35 60.2707 391.231 59.9364 390.993 59.687C390.766 59.4264 390.449 59.296 390.041 59.296C389.712 59.296 389.429 59.398 389.191 59.602C388.953 59.806 388.834 60.1177 388.834 60.537C388.834 60.979 389.004 61.3247 389.344 61.574C389.684 61.8234 390.131 62.0557 390.687 62.271ZM386.25 65.807C386.25 65.1497 386.425 64.6114 386.777 64.192C387.139 63.7727 387.576 63.427 388.086 63.155V63.087C387.666 62.7697 387.321 62.4127 387.049 62.016C386.777 61.608 386.641 61.115 386.641 60.537C386.641 60.0837 386.726 59.6757 386.896 59.313C387.066 58.939 387.304 58.6217 387.61 58.361C387.916 58.1004 388.278 57.902 388.698 57.766C389.128 57.63 389.593 57.562 390.092 57.562C390.579 57.562 391.027 57.6357 391.435 57.783C391.843 57.919 392.188 58.1174 392.472 58.378C392.755 58.6274 392.976 58.939 393.135 59.313C393.293 59.6757 393.373 60.078 393.373 60.52C393.373 61.0414 393.231 61.506 392.948 61.914C392.664 62.3107 392.336 62.6337 391.962 62.883V62.951C392.483 63.2344 392.925 63.597 393.288 64.039C393.65 64.481 393.832 65.059 393.832 65.773C393.832 66.2037 393.741 66.6004 393.56 66.963C393.378 67.3257 393.118 67.643 392.778 67.915C392.449 68.1757 392.047 68.3854 391.571 68.544C391.106 68.6914 390.585 68.765 390.007 68.765C389.463 68.765 388.958 68.697 388.494 68.561C388.04 68.4137 387.644 68.2097 387.304 67.949C386.975 67.6884 386.714 67.3767 386.522 67.014C386.34 66.6514 386.25 66.249 386.25 65.807ZM400.518 63.971L400.263 62.951C400.104 62.3957 399.951 61.8064 399.804 61.183C399.657 60.5597 399.509 59.959 399.362 59.381H399.294C399.158 59.9704 399.016 60.5767 398.869 61.2C398.733 61.812 398.586 62.3957 398.427 62.951L398.155 63.971H400.518ZM401.028 65.926H397.645L396.965 68.561H394.415L397.883 57.477H400.892L404.36 68.561H401.708L401.028 65.926ZM405.571 57.477H409.362C409.94 57.477 410.473 57.5224 410.96 57.613C411.459 57.6924 411.89 57.8397 412.252 58.055C412.626 58.2704 412.915 58.5537 413.119 58.905C413.335 59.2564 413.442 59.6984 413.442 60.231C413.442 60.4804 413.403 60.7297 413.323 60.979C413.255 61.2284 413.148 61.4607 413 61.676C412.853 61.8914 412.66 62.084 412.422 62.254C412.184 62.424 411.907 62.5487 411.589 62.628V62.696C412.383 62.8434 412.978 63.1267 413.374 63.546C413.782 63.9654 413.986 64.549 413.986 65.297C413.986 65.8637 413.873 66.351 413.646 66.759C413.431 67.167 413.125 67.507 412.728 67.779C412.343 68.0397 411.89 68.238 411.368 68.374C410.847 68.4987 410.286 68.561 409.685 68.561H405.571V57.477ZM409.243 61.948C409.855 61.948 410.297 61.829 410.569 61.591C410.853 61.3417 410.994 61.0074 410.994 60.588C410.994 60.1687 410.853 59.8684 410.569 59.687C410.286 59.5057 409.85 59.415 409.26 59.415H408.07V61.948H409.243ZM409.481 66.623C410.853 66.623 411.538 66.1187 411.538 65.11C411.538 64.6227 411.368 64.2714 411.028 64.056C410.688 63.8294 410.173 63.716 409.481 63.716H408.07V66.623H409.481Z" fill="white"/>
<rect x="472.657" y="0.561035" width="135.644" height="123.849" fill="#EFFF9B"/>
<path d="M509.321 65.195H507.989V63.503H509.519L509.771 61.523H508.349V59.831H509.987L510.365 56.861H511.877L511.517 59.831H513.389L513.767 56.861H515.279L514.919 59.831H516.341V61.523H514.703L514.469 63.503H515.981V65.195H514.271L513.857 68.561H512.327L512.723 65.195H510.869L510.455 68.561H508.925L509.321 65.195ZM512.921 63.503L513.173 61.523H511.301L511.067 63.503H512.921ZM518.273 56.825H525.617V59.057H520.919V61.415H524.915V63.629H520.919V66.329H525.797V68.561H518.273V56.825ZM528.134 56.825H535.532V59.057H530.78V61.775H534.848V64.007H530.78V68.561H528.134V56.825ZM537.574 56.825H544.972V59.057H540.22V61.775H544.288V64.007H540.22V68.561H537.574V56.825ZM547.013 56.825H554.411V59.057H549.659V61.775H553.727V64.007H549.659V68.561H547.013V56.825ZM559.603 62.405C559.891 62.405 560.185 62.321 560.485 62.153C560.785 61.985 561.061 61.691 561.313 61.271C561.193 60.371 560.965 59.753 560.629 59.417C560.305 59.069 559.939 58.895 559.531 58.895C559.147 58.895 558.811 59.045 558.523 59.345C558.235 59.633 558.091 60.101 558.091 60.749C558.091 61.361 558.235 61.793 558.523 62.045C558.811 62.285 559.171 62.405 559.603 62.405ZM557.245 65.825C557.437 66.041 557.695 66.233 558.019 66.401C558.343 66.557 558.673 66.635 559.009 66.635C559.333 66.635 559.633 66.575 559.909 66.455C560.185 66.335 560.425 66.137 560.629 65.861C560.845 65.573 561.013 65.207 561.133 64.763C561.265 64.307 561.343 63.743 561.367 63.071C561.223 63.263 561.055 63.437 560.863 63.593C560.671 63.737 560.473 63.863 560.269 63.971C560.065 64.067 559.861 64.145 559.657 64.205C559.453 64.253 559.261 64.277 559.081 64.277C558.589 64.277 558.133 64.205 557.713 64.061C557.305 63.917 556.951 63.701 556.651 63.413C556.351 63.125 556.111 62.759 555.931 62.315C555.763 61.871 555.679 61.349 555.679 60.749C555.679 60.161 555.781 59.633 555.985 59.165C556.189 58.685 556.459 58.277 556.795 57.941C557.143 57.605 557.545 57.353 558.001 57.185C558.469 57.005 558.961 56.915 559.477 56.915C560.029 56.915 560.563 57.023 561.079 57.239C561.607 57.455 562.069 57.791 562.465 58.247C562.873 58.703 563.197 59.291 563.437 60.011C563.689 60.719 563.815 61.577 563.815 62.585C563.815 63.653 563.683 64.577 563.419 65.357C563.167 66.137 562.825 66.779 562.393 67.283C561.973 67.787 561.481 68.165 560.917 68.417C560.365 68.657 559.789 68.777 559.189 68.777C558.433 68.777 557.773 68.639 557.209 68.363C556.657 68.087 556.201 67.769 555.841 67.409L557.245 65.825ZM565.962 56.825H569.976C570.588 56.825 571.152 56.873 571.668 56.969C572.196 57.053 572.652 57.209 573.036 57.437C573.432 57.665 573.738 57.965 573.954 58.337C574.182 58.709 574.296 59.177 574.296 59.741C574.296 60.005 574.254 60.269 574.17 60.533C574.098 60.797 573.984 61.043 573.828 61.271C573.672 61.499 573.468 61.703 573.216 61.883C572.964 62.063 572.67 62.195 572.334 62.279V62.351C573.174 62.507 573.804 62.807 574.224 63.251C574.656 63.695 574.872 64.313 574.872 65.105C574.872 65.705 574.752 66.221 574.512 66.653C574.284 67.085 573.96 67.445 573.54 67.733C573.132 68.009 572.652 68.219 572.1 68.363C571.548 68.495 570.954 68.561 570.318 68.561H565.962V56.825ZM569.85 61.559C570.498 61.559 570.966 61.433 571.254 61.181C571.554 60.917 571.704 60.563 571.704 60.119C571.704 59.675 571.554 59.357 571.254 59.165C570.954 58.973 570.492 58.877 569.868 58.877H568.608V61.559H569.85ZM570.102 66.509C571.554 66.509 572.28 65.975 572.28 64.907C572.28 64.391 572.1 64.019 571.74 63.791C571.38 63.551 570.834 63.431 570.102 63.431H568.608V66.509H570.102Z" fill="black"/>
<rect x="0.560669" y="0.561035" width="135.644" height="123.849" fill="#071E22"/>
<path d="M38.6176 65.382H37.3596V63.784H38.8046L39.0426 61.914H37.6996V60.316H39.2466L39.6036 57.511H41.0316L40.6916 60.316H42.4596L42.8166 57.511H44.2446L43.9046 60.316H45.2476V61.914H43.7006L43.4796 63.784H44.9076V65.382H43.2926L42.9016 68.561H41.4566L41.8306 65.382H40.0796L39.6886 68.561H38.2436L38.6176 65.382ZM42.0176 63.784L42.2556 61.914H40.4876L40.2666 63.784H42.0176ZM50.251 68.765C49.673 68.765 49.146 68.646 48.67 68.408C48.194 68.1587 47.786 67.796 47.446 67.32C47.1174 66.844 46.8567 66.2547 46.664 65.552C46.4827 64.8494 46.392 64.039 46.392 63.121C46.392 62.203 46.4827 61.3984 46.664 60.707C46.8567 60.0157 47.1174 59.4377 47.446 58.973C47.786 58.497 48.194 58.1457 48.67 57.919C49.146 57.681 49.673 57.562 50.251 57.562C50.829 57.562 51.356 57.681 51.832 57.919C52.308 58.1457 52.7104 58.497 53.039 58.973C53.379 59.4377 53.6397 60.0157 53.821 60.707C54.0137 61.3984 54.11 62.203 54.11 63.121C54.11 64.039 54.0137 64.8494 53.821 65.552C53.6397 66.2547 53.379 66.844 53.039 67.32C52.7104 67.796 52.308 68.1587 51.832 68.408C51.356 68.646 50.829 68.765 50.251 68.765ZM50.251 66.827C50.4664 66.827 50.6647 66.776 50.846 66.674C51.0274 66.5607 51.186 66.3624 51.322 66.079C51.458 65.7957 51.56 65.416 51.628 64.94C51.7074 64.464 51.747 63.8577 51.747 63.121C51.747 62.3844 51.7074 61.7837 51.628 61.319C51.56 60.843 51.458 60.4747 51.322 60.214C51.186 59.942 51.0274 59.755 50.846 59.653C50.6647 59.551 50.4664 59.5 50.251 59.5C50.047 59.5 49.8544 59.551 49.673 59.653C49.4917 59.755 49.333 59.942 49.197 60.214C49.061 60.4747 48.9534 60.843 48.874 61.319C48.7947 61.7837 48.755 62.3844 48.755 63.121C48.755 63.8577 48.7947 64.464 48.874 64.94C48.9534 65.416 49.061 65.7957 49.197 66.079C49.333 66.3624 49.4917 66.5607 49.673 66.674C49.8544 66.776 50.047 66.827 50.251 66.827ZM57.4475 68.561C57.4928 67.6657 57.5721 66.844 57.6855 66.096C57.8101 65.3367 57.9801 64.617 58.1955 63.937C58.4221 63.2457 58.7055 62.5714 59.0455 61.914C59.3968 61.2567 59.8275 60.5767 60.3375 59.874H55.4925V57.766H63.0065V59.296C62.3831 60.0554 61.8788 60.7694 61.4935 61.438C61.1195 62.0954 60.8248 62.781 60.6095 63.495C60.4055 64.1977 60.2581 64.957 60.1675 65.773C60.0768 66.5777 60.0088 67.507 59.9635 68.561H57.4475ZM64.9159 66.538H67.2619V60.299H65.2389V58.752C65.8283 58.6387 66.3269 58.5027 66.7349 58.344C67.1429 58.1854 67.5396 57.9927 67.9249 57.766H69.7609V66.538H71.7839V68.561H64.9159V66.538ZM74.0164 57.477H80.9524V59.585H76.5154V61.812H80.2894V63.903H76.5154V66.453H81.1224V68.561H74.0164V57.477ZM82.6498 67.133C83.3412 66.487 83.9702 65.8864 84.5368 65.331C85.1148 64.7644 85.6078 64.2374 86.0158 63.75C86.4352 63.2514 86.7582 62.7924 86.9848 62.373C87.2228 61.9424 87.3418 61.5344 87.3418 61.149C87.3418 60.6164 87.2058 60.214 86.9338 59.942C86.6618 59.6587 86.2878 59.517 85.8118 59.517C85.4152 59.517 85.0638 59.6304 84.7578 59.857C84.4518 60.0724 84.1628 60.3274 83.8908 60.622L82.5308 59.279C83.0635 58.7124 83.6075 58.2874 84.1628 58.004C84.7182 57.7094 85.3812 57.562 86.1518 57.562C86.6845 57.562 87.1662 57.647 87.5968 57.817C88.0388 57.9757 88.4185 58.208 88.7358 58.514C89.0532 58.8087 89.2968 59.1657 89.4668 59.585C89.6368 60.0044 89.7218 60.4747 89.7218 60.996C89.7218 61.4494 89.6255 61.914 89.4328 62.39C89.2402 62.8547 88.9795 63.325 88.6508 63.801C88.3335 64.2657 87.9652 64.736 87.5458 65.212C87.1378 65.6767 86.7128 66.1357 86.2708 66.589C86.5428 66.555 86.8432 66.5267 87.1718 66.504C87.5118 66.47 87.8122 66.453 88.0728 66.453H90.2488V68.561H82.6498V67.133ZM91.6313 67.133C92.3226 66.487 92.9516 65.8864 93.5183 65.331C94.0963 64.7644 94.5893 64.2374 94.9973 63.75C95.4166 63.2514 95.7396 62.7924 95.9663 62.373C96.2043 61.9424 96.3233 61.5344 96.3233 61.149C96.3233 60.6164 96.1873 60.214 95.9153 59.942C95.6433 59.6587 95.2693 59.517 94.7933 59.517C94.3966 59.517 94.0453 59.6304 93.7393 59.857C93.4333 60.0724 93.1443 60.3274 92.8723 60.622L91.5123 59.279C92.045 58.7124 92.589 58.2874 93.1443 58.004C93.6996 57.7094 94.3626 57.562 95.1333 57.562C95.666 57.562 96.1476 57.647 96.5783 57.817C97.0203 57.9757 97.4 58.208 97.7173 58.514C98.0346 58.8087 98.2783 59.1657 98.4483 59.585C98.6183 60.0044 98.7033 60.4747 98.7033 60.996C98.7033 61.4494 98.607 61.914 98.4143 62.39C98.2216 62.8547 97.961 63.325 97.6323 63.801C97.315 64.2657 96.9466 64.736 96.5273 65.212C96.1193 65.6767 95.6943 66.1357 95.2523 66.589C95.5243 66.555 95.8246 66.5267 96.1533 66.504C96.4933 66.47 96.7936 66.453 97.0543 66.453H99.2303V68.561H91.6313V67.133Z" fill="white"/>
</svg>
