<svg width="703" height="103" viewBox="0 0 703 103" fill="none" xmlns="http://www.w3.org/2000/svg">
<rect x="120.471" y="0.619446" width="100.392" height="100.392" fill="#AFD2A0"/>
<path d="M136.899 54.2194H133.819L133.539 56.9994H132.059L132.339 54.2194H130.359L130.459 53.1394H132.459L132.839 49.5794H130.819L130.939 48.5194H132.939L133.239 45.7594H134.719L134.419 48.5194H137.499L137.799 45.7594H139.259L138.959 48.5194H141.019L140.899 49.5794H138.859L138.479 53.1394H140.539L140.419 54.2194H138.359L138.079 56.9994H136.599L136.899 54.2194ZM133.939 53.1394H136.999L137.379 49.5794H134.319L133.939 53.1394ZM146.678 45.0394H148.598L152.818 57.6194H151.178L150.098 54.4194H145.098L144.018 57.6194H142.358L146.678 45.0394ZM145.518 53.1794H149.698L147.618 46.9794L145.518 53.1794ZM155.362 45.0394H163.002V46.3994H156.942V50.5794H162.582V51.9394H156.942V57.6194H155.362V45.0394ZM169.53 45.0394C171.423 45.0394 172.937 45.6128 174.07 46.7594C175.217 47.8928 175.79 49.4194 175.79 51.3394C175.79 53.2461 175.217 54.7728 174.07 55.9194C172.937 57.0528 171.423 57.6194 169.53 57.6194H165.83V45.0394H169.53ZM167.41 56.2394H169.53C170.93 56.2394 172.043 55.7794 172.87 54.8594C173.697 53.9261 174.11 52.7461 174.11 51.3194C174.11 49.8928 173.69 48.7261 172.85 47.8194C172.023 46.8994 170.917 46.4394 169.53 46.4394H167.41V56.2394ZM179.913 56.1594H187.213V57.6194H178.333V55.7594C178.333 54.2794 178.893 53.1928 180.013 52.4994C180.373 52.2728 180.773 52.0728 181.213 51.8994L183.693 50.8994C184.973 50.3928 185.613 49.5594 185.613 48.3994C185.613 47.7594 185.393 47.2394 184.953 46.8394C184.513 46.4261 183.893 46.2194 183.093 46.2194C182.306 46.2194 181.659 46.3861 181.153 46.7194C180.659 47.0528 180.373 47.5528 180.293 48.2194H178.553C178.619 47.1261 179.059 46.2861 179.873 45.6994C180.686 45.1128 181.726 44.8194 182.993 44.8194C184.273 44.8194 185.313 45.1661 186.113 45.8594C186.913 46.5528 187.313 47.4128 187.313 48.4394C187.313 49.4528 187.046 50.2594 186.513 50.8594C185.993 51.4594 185.273 51.9394 184.353 52.2994L181.813 53.3194C181.173 53.5861 180.693 53.8928 180.373 54.2394C180.066 54.5728 179.913 55.0128 179.913 55.5594V56.1594ZM193.494 45.0394H195.414L199.634 57.6194H197.994L196.914 54.4194H191.914L190.834 57.6194H189.174L193.494 45.0394ZM192.334 53.1794H196.514L194.434 46.9794L192.334 53.1794ZM206.118 44.8194C207.638 44.8194 208.838 45.3794 209.718 46.4994C210.598 47.6194 211.038 49.2328 211.038 51.3394C211.038 53.4328 210.598 55.0394 209.718 56.1594C208.838 57.2794 207.638 57.8394 206.118 57.8394C204.598 57.8394 203.392 57.2861 202.498 56.1794C201.618 55.0728 201.178 53.4594 201.178 51.3394C201.178 49.2061 201.618 47.5861 202.498 46.4794C203.392 45.3728 204.598 44.8194 206.118 44.8194ZM209.398 51.3394C209.398 49.6994 209.118 48.4461 208.558 47.5794C207.998 46.6994 207.178 46.2594 206.098 46.2594C205.032 46.2594 204.218 46.6994 203.658 47.5794C203.098 48.4461 202.818 49.6994 202.818 51.3394C202.818 52.9661 203.098 54.2194 203.658 55.0994C204.218 55.9661 205.032 56.3994 206.098 56.3994C207.178 56.3994 207.998 55.9661 208.558 55.0994C209.118 54.2194 209.398 52.9661 209.398 51.3394Z" fill="black"/>
<rect x="481.881" y="0.619446" width="100.392" height="100.392" fill="#F7F7F7"/>
<path d="M503.583 54.2194H500.503L500.223 56.9994H498.743L499.023 54.2194H497.043L497.143 53.1394H499.143L499.523 49.5794H497.503L497.623 48.5194H499.623L499.923 45.7594H501.403L501.103 48.5194H504.183L504.483 45.7594H505.943L505.643 48.5194H507.703L507.583 49.5794H505.543L505.163 53.1394H507.223L507.103 54.2194H505.043L504.763 56.9994H503.283L503.583 54.2194ZM500.623 53.1394H503.683L504.063 49.5794H501.003L500.623 53.1394ZM510.542 45.0394H518.182V46.3994H512.122V50.5794H517.762V51.9394H512.122V57.6194H510.542V45.0394ZM528.05 45.0394V46.4994L522.29 57.6194H520.17L526.21 46.5594H519.49V45.0394H528.05ZM530.425 45.0394H538.065V46.3994H532.005V50.5794H537.645V51.9394H532.005V57.6194H530.425V45.0394ZM547.933 45.0394V46.4994L542.173 57.6194H540.053L546.093 46.5594H539.373V45.0394H547.933ZM550.308 45.0394H557.948V46.3994H551.888V50.5794H557.528V51.9394H551.888V57.6194H550.308V45.0394ZM567.816 45.0394V46.4994L562.056 57.6194H559.936L565.976 46.5594H559.256V45.0394H567.816Z" fill="black"/>
<rect x="602.351" y="0.619446" width="100.392" height="100.392" fill="#E9FF8E"/>
<path d="M620.196 55.2234H617.116L616.836 58.0034H615.356L615.636 55.2234H613.656L613.756 54.1434H615.756L616.136 50.5834H614.116L614.236 49.5234H616.236L616.536 46.7634H618.016L617.716 49.5234H620.796L621.096 46.7634H622.556L622.256 49.5234H624.316L624.196 50.5834H622.156L621.776 54.1434H623.836L623.716 55.2234H621.656L621.376 58.0034H619.896L620.196 55.2234ZM617.236 54.1434H620.296L620.676 50.5834H617.616L617.236 54.1434ZM627.135 46.0434H634.875V47.4034H628.715V51.6234H634.515V52.9634H628.715V57.2434H634.875V58.6234H627.135V46.0434ZM642.005 45.8234C642.685 45.8234 643.332 45.97 643.945 46.2634C644.559 46.5567 645.085 46.9767 645.525 47.5234C646.485 48.6967 646.965 50.2234 646.965 52.1034C646.965 55.37 646.059 57.4634 644.245 58.3834C643.619 58.69 642.939 58.8434 642.205 58.8434C640.832 58.8434 639.745 58.47 638.945 57.7234C638.145 56.9767 637.745 56.0367 637.745 54.9034H639.405C639.432 55.6634 639.672 56.27 640.125 56.7234C640.579 57.1767 641.152 57.4034 641.845 57.4034C642.539 57.4034 643.099 57.2767 643.525 57.0234C644.739 56.2634 645.345 54.55 645.345 51.8834C645.345 51.3367 645.312 50.8434 645.245 50.4034C645.112 51.4834 644.719 52.29 644.065 52.8234C643.425 53.3567 642.579 53.6234 641.525 53.6234C640.485 53.6234 639.585 53.2567 638.825 52.5234C638.065 51.7767 637.685 50.83 637.685 49.6834C637.685 48.5234 638.079 47.59 638.865 46.8834C639.652 46.1767 640.699 45.8234 642.005 45.8234ZM643.825 47.9634C643.332 47.51 642.705 47.2834 641.945 47.2834C641.185 47.2834 640.559 47.5034 640.065 47.9434C639.572 48.3834 639.325 48.99 639.325 49.7634C639.325 50.5367 639.572 51.1434 640.065 51.5834C640.572 52.0234 641.199 52.2434 641.945 52.2434C642.705 52.2434 643.332 52.01 643.825 51.5434C644.332 51.0634 644.585 50.4567 644.585 49.7234C644.585 48.99 644.332 48.4034 643.825 47.9634ZM650.006 46.0434H657.646V47.4034H651.586V51.5834H657.226V52.9434H651.586V58.6234H650.006V46.0434ZM660.495 46.0434H668.135V47.4034H662.075V51.5834H667.715V52.9434H662.075V58.6234H660.495V46.0434ZM672.983 52.2634C671.316 51.5034 670.483 50.47 670.483 49.1634C670.483 48.1634 670.896 47.3567 671.723 46.7434C672.55 46.13 673.643 45.8234 675.003 45.8234C676.376 45.8234 677.503 46.15 678.383 46.8034C679.263 47.4567 679.703 48.2967 679.703 49.3234C679.703 50.0167 679.47 50.6367 679.003 51.1834C678.55 51.73 677.876 52.07 676.983 52.2034L677.323 52.3234C678.243 52.67 678.95 53.0834 679.443 53.5634C679.936 54.03 680.183 54.67 680.183 55.4834C680.183 56.4967 679.73 57.31 678.823 57.9234C677.93 58.5367 676.716 58.8434 675.183 58.8434C673.663 58.8434 672.43 58.5034 671.483 57.8234C670.536 57.1434 670.063 56.29 670.063 55.2634C670.063 54.4367 670.33 53.7634 670.863 53.2434C671.41 52.7234 672.116 52.3967 672.983 52.2634ZM674.483 52.8434C673.643 52.9367 672.97 53.2034 672.463 53.6434C671.956 54.07 671.703 54.6034 671.703 55.2434C671.703 55.8834 672.023 56.4034 672.663 56.8034C673.303 57.2034 674.136 57.4034 675.163 57.4034C676.203 57.4034 677.023 57.23 677.623 56.8834C678.236 56.5367 678.543 56.1167 678.543 55.6234C678.543 55.13 678.383 54.7367 678.063 54.4434C677.743 54.1367 677.303 53.8834 676.743 53.6834L674.483 52.8434ZM672.143 49.3634C672.143 49.7234 672.29 50.0367 672.583 50.3034C672.876 50.5567 673.296 50.79 673.843 51.0034L675.303 51.5634C676.103 51.5367 676.763 51.33 677.283 50.9434C677.803 50.5434 678.063 50.03 678.063 49.4034C678.063 48.7634 677.79 48.25 677.243 47.8634C676.696 47.4634 675.99 47.2634 675.123 47.2634C674.256 47.2634 673.543 47.4567 672.983 47.8434C672.423 48.2167 672.143 48.7234 672.143 49.3634ZM683.268 46.0434H691.008V47.4034H684.848V51.6234H690.648V52.9634H684.848V57.2434H691.008V58.6234H683.268V46.0434Z" fill="black"/>
<rect x="240.941" y="0.619446" width="100.392" height="100.392" fill="#B892FF"/>
<path d="M257.995 54.2194H254.915L254.635 56.9994H253.155L253.435 54.2194H251.455L251.555 53.1394H253.555L253.935 49.5794H251.915L252.035 48.5194H254.035L254.335 45.7594H255.815L255.515 48.5194H258.595L258.895 45.7594H260.355L260.055 48.5194H262.115L261.995 49.5794H259.955L259.575 53.1394H261.635L261.515 54.2194H259.455L259.175 56.9994H257.695L257.995 54.2194ZM255.035 53.1394H258.095L258.475 49.5794H255.415L255.035 53.1394ZM264.954 45.0394H269.654C270.974 45.0394 271.987 45.3528 272.694 45.9794C273.414 46.6061 273.774 47.3928 273.774 48.3394C273.774 49.0594 273.574 49.6861 273.174 50.2194C272.787 50.7528 272.194 51.1128 271.394 51.2994C272.18 51.4328 272.807 51.7728 273.274 52.3194C273.754 52.8661 273.994 53.4861 273.994 54.1794C273.994 55.7261 273.24 56.7728 271.734 57.3194C271.174 57.5194 270.487 57.6194 269.674 57.6194H264.954V45.0394ZM269.634 56.2394C270.594 56.2394 271.28 56.0461 271.694 55.6594C272.107 55.2728 272.314 54.7594 272.314 54.1194C272.314 53.4794 272.087 52.9728 271.634 52.5994C271.18 52.2128 270.514 52.0194 269.634 52.0194H266.534V56.2394H269.634ZM266.534 50.6594H269.614C270.387 50.6594 271 50.4728 271.454 50.0994C271.92 49.7128 272.154 49.1861 272.154 48.5194C272.154 47.8528 271.927 47.3328 271.474 46.9594C271.034 46.5861 270.414 46.3994 269.614 46.3994H266.534V50.6594ZM279.395 51.2594C277.728 50.4994 276.895 49.4661 276.895 48.1594C276.895 47.1594 277.308 46.3528 278.135 45.7394C278.962 45.1261 280.055 44.8194 281.415 44.8194C282.788 44.8194 283.915 45.1461 284.795 45.7994C285.675 46.4528 286.115 47.2928 286.115 48.3194C286.115 49.0128 285.882 49.6328 285.415 50.1794C284.962 50.7261 284.288 51.0661 283.395 51.1994L283.735 51.3194C284.655 51.6661 285.362 52.0794 285.855 52.5594C286.348 53.0261 286.595 53.6661 286.595 54.4794C286.595 55.4928 286.142 56.3061 285.235 56.9194C284.342 57.5328 283.128 57.8394 281.595 57.8394C280.075 57.8394 278.842 57.4994 277.895 56.8194C276.948 56.1394 276.475 55.2861 276.475 54.2594C276.475 53.4328 276.742 52.7594 277.275 52.2394C277.822 51.7194 278.528 51.3928 279.395 51.2594ZM280.895 51.8394C280.055 51.9328 279.382 52.1994 278.875 52.6394C278.368 53.0661 278.115 53.5994 278.115 54.2394C278.115 54.8794 278.435 55.3994 279.075 55.7994C279.715 56.1994 280.548 56.3994 281.575 56.3994C282.615 56.3994 283.435 56.2261 284.035 55.8794C284.648 55.5328 284.955 55.1128 284.955 54.6194C284.955 54.1261 284.795 53.7328 284.475 53.4394C284.155 53.1328 283.715 52.8794 283.155 52.6794L280.895 51.8394ZM278.555 48.3594C278.555 48.7194 278.702 49.0328 278.995 49.2994C279.288 49.5528 279.708 49.7861 280.255 49.9994L281.715 50.5594C282.515 50.5328 283.175 50.3261 283.695 49.9394C284.215 49.5394 284.475 49.0261 284.475 48.3994C284.475 47.7594 284.202 47.2461 283.655 46.8594C283.108 46.4594 282.402 46.2594 281.535 46.2594C280.668 46.2594 279.955 46.4528 279.395 46.8394C278.835 47.2128 278.555 47.7194 278.555 48.3594ZM293.32 44.8194C294 44.8194 294.646 44.9661 295.26 45.2594C295.873 45.5528 296.4 45.9728 296.84 46.5194C297.8 47.6928 298.28 49.2194 298.28 51.0994C298.28 54.3661 297.373 56.4594 295.56 57.3794C294.933 57.6861 294.253 57.8394 293.52 57.8394C292.146 57.8394 291.06 57.4661 290.26 56.7194C289.46 55.9728 289.06 55.0328 289.06 53.8994H290.72C290.746 54.6594 290.986 55.2661 291.44 55.7194C291.893 56.1728 292.466 56.3994 293.16 56.3994C293.853 56.3994 294.413 56.2728 294.84 56.0194C296.053 55.2594 296.66 53.5461 296.66 50.8794C296.66 50.3328 296.626 49.8394 296.56 49.3994C296.426 50.4794 296.033 51.2861 295.38 51.8194C294.74 52.3528 293.893 52.6194 292.84 52.6194C291.8 52.6194 290.9 52.2528 290.14 51.5194C289.38 50.7728 289 49.8261 289 48.6794C289 47.5194 289.393 46.5861 290.18 45.8794C290.966 45.1728 292.013 44.8194 293.32 44.8194ZM295.14 46.9594C294.646 46.5061 294.02 46.2794 293.26 46.2794C292.5 46.2794 291.873 46.4994 291.38 46.9394C290.886 47.3794 290.64 47.9861 290.64 48.7594C290.64 49.5328 290.886 50.1394 291.38 50.5794C291.886 51.0194 292.513 51.2394 293.26 51.2394C294.02 51.2394 294.646 51.0061 295.14 50.5394C295.646 50.0594 295.9 49.4528 295.9 48.7194C295.9 47.9861 295.646 47.3994 295.14 46.9594ZM302.161 56.1594H309.461V57.6194H300.581V55.7594C300.581 54.2794 301.141 53.1928 302.261 52.4994C302.621 52.2728 303.021 52.0728 303.461 51.8994L305.941 50.8994C307.221 50.3928 307.861 49.5594 307.861 48.3994C307.861 47.7594 307.641 47.2394 307.201 46.8394C306.761 46.4261 306.141 46.2194 305.341 46.2194C304.554 46.2194 303.907 46.3861 303.401 46.7194C302.907 47.0528 302.621 47.5528 302.541 48.2194H300.801C300.867 47.1261 301.307 46.2861 302.121 45.6994C302.934 45.1128 303.974 44.8194 305.241 44.8194C306.521 44.8194 307.561 45.1661 308.361 45.8594C309.161 46.5528 309.561 47.4128 309.561 48.4394C309.561 49.4528 309.294 50.2594 308.761 50.8594C308.241 51.4594 307.521 51.9394 306.601 52.2994L304.061 53.3194C303.421 53.5861 302.941 53.8928 302.621 54.2394C302.314 54.5728 302.161 55.0128 302.161 55.5594V56.1594ZM312.922 45.0394H320.562V46.3994H314.502V50.5794H320.142V51.9394H314.502V57.6194H312.922V45.0394ZM323.411 45.0394H331.051V46.3994H324.991V50.5794H330.631V51.9394H324.991V57.6194H323.411V45.0394Z" fill="black"/>
<rect x="361.412" y="0.619446" width="100.392" height="100.392" fill="#8AC8EB"/>
<path d="M376.912 54.7214H373.832L373.552 57.5014H372.072L372.352 54.7214H370.372L370.472 53.6414H372.472L372.852 50.0814H370.832L370.952 49.0214H372.952L373.252 46.2614H374.732L374.432 49.0214H377.512L377.812 46.2614H379.272L378.972 49.0214H381.032L380.912 50.0814H378.872L378.492 53.6414H380.552L380.432 54.7214H378.372L378.092 57.5014H376.612L376.912 54.7214ZM373.952 53.6414H377.012L377.392 50.0814H374.332L373.952 53.6414ZM385.871 51.7614C384.204 51.0014 383.371 49.9681 383.371 48.6614C383.371 47.6614 383.784 46.8548 384.611 46.2414C385.438 45.6281 386.531 45.3214 387.891 45.3214C389.264 45.3214 390.391 45.6481 391.271 46.3014C392.151 46.9548 392.591 47.7948 392.591 48.8214C392.591 49.5148 392.358 50.1348 391.891 50.6814C391.438 51.2281 390.764 51.5681 389.871 51.7014L390.211 51.8214C391.131 52.1681 391.838 52.5814 392.331 53.0614C392.824 53.5281 393.071 54.1681 393.071 54.9814C393.071 55.9948 392.618 56.8081 391.711 57.4214C390.818 58.0348 389.604 58.3414 388.071 58.3414C386.551 58.3414 385.318 58.0014 384.371 57.3214C383.424 56.6414 382.951 55.7881 382.951 54.7614C382.951 53.9348 383.218 53.2614 383.751 52.7414C384.298 52.2214 385.004 51.8948 385.871 51.7614ZM387.371 52.3414C386.531 52.4348 385.858 52.7014 385.351 53.1414C384.844 53.5681 384.591 54.1014 384.591 54.7414C384.591 55.3814 384.911 55.9014 385.551 56.3014C386.191 56.7014 387.024 56.9014 388.051 56.9014C389.091 56.9014 389.911 56.7281 390.511 56.3814C391.124 56.0348 391.431 55.6148 391.431 55.1214C391.431 54.6281 391.271 54.2348 390.951 53.9414C390.631 53.6348 390.191 53.3814 389.631 53.1814L387.371 52.3414ZM385.031 48.8614C385.031 49.2214 385.178 49.5348 385.471 49.8014C385.764 50.0548 386.184 50.2881 386.731 50.5014L388.191 51.0614C388.991 51.0348 389.651 50.8281 390.171 50.4414C390.691 50.0414 390.951 49.5281 390.951 48.9014C390.951 48.2614 390.678 47.7481 390.131 47.3614C389.584 46.9614 388.878 46.7614 388.011 46.7614C387.144 46.7614 386.431 46.9548 385.871 47.3414C385.311 47.7148 385.031 48.2214 385.031 48.8614ZM398.996 45.5414H400.916L405.136 58.1214H403.496L402.416 54.9214H397.416L396.336 58.1214H394.676L398.996 45.5414ZM397.836 53.6814H402.016L399.936 47.4814L397.836 53.6814ZM412.04 45.3214C413.386 45.3214 414.466 45.6614 415.28 46.3414C416.106 47.0081 416.673 47.8814 416.98 48.9614L415.28 49.3014C415.013 48.5148 414.593 47.8948 414.02 47.4414C413.46 46.9748 412.8 46.7414 412.04 46.7414C410.986 46.7414 410.113 47.1814 409.42 48.0614C408.726 48.9414 408.38 50.1681 408.38 51.7414C408.38 53.3014 408.686 54.5548 409.3 55.5014C409.926 56.4481 410.84 56.9214 412.04 56.9214C413.04 56.9214 413.826 56.6614 414.4 56.1414C414.986 55.6081 415.28 54.9081 415.28 54.0414H416.98C416.98 55.3614 416.526 56.4081 415.62 57.1814C414.726 57.9548 413.493 58.3414 411.92 58.3414C410.36 58.3414 409.093 57.7414 408.12 56.5414C407.16 55.3414 406.68 53.7348 406.68 51.7214C406.68 49.7081 407.18 48.1414 408.18 47.0214C409.18 45.8881 410.466 45.3214 412.04 45.3214ZM421.945 51.7614C420.279 51.0014 419.445 49.9681 419.445 48.6614C419.445 47.6614 419.859 46.8548 420.685 46.2414C421.512 45.6281 422.605 45.3214 423.965 45.3214C425.339 45.3214 426.465 45.6481 427.345 46.3014C428.225 46.9548 428.665 47.7948 428.665 48.8214C428.665 49.5148 428.432 50.1348 427.965 50.6814C427.512 51.2281 426.839 51.5681 425.945 51.7014L426.285 51.8214C427.205 52.1681 427.912 52.5814 428.405 53.0614C428.899 53.5281 429.145 54.1681 429.145 54.9814C429.145 55.9948 428.692 56.8081 427.785 57.4214C426.892 58.0348 425.679 58.3414 424.145 58.3414C422.625 58.3414 421.392 58.0014 420.445 57.3214C419.499 56.6414 419.025 55.7881 419.025 54.7614C419.025 53.9348 419.292 53.2614 419.825 52.7414C420.372 52.2214 421.079 51.8948 421.945 51.7614ZM423.445 52.3414C422.605 52.4348 421.932 52.7014 421.425 53.1414C420.919 53.5681 420.665 54.1014 420.665 54.7414C420.665 55.3814 420.985 55.9014 421.625 56.3014C422.265 56.7014 423.099 56.9014 424.125 56.9014C425.165 56.9014 425.985 56.7281 426.585 56.3814C427.199 56.0348 427.505 55.6148 427.505 55.1214C427.505 54.6281 427.345 54.2348 427.025 53.9414C426.705 53.6348 426.265 53.3814 425.705 53.1814L423.445 52.3414ZM421.105 48.8614C421.105 49.2214 421.252 49.5348 421.545 49.8014C421.839 50.0548 422.259 50.2881 422.805 50.5014L424.265 51.0614C425.065 51.0348 425.725 50.8281 426.245 50.4414C426.765 50.0414 427.025 49.5281 427.025 48.9014C427.025 48.2614 426.752 47.7481 426.205 47.3614C425.659 46.9614 424.952 46.7614 424.085 46.7614C423.219 46.7614 422.505 46.9548 421.945 47.3414C421.385 47.7148 421.105 48.2214 421.105 48.8614ZM432.23 45.5414H439.97V46.9014H433.81V51.1214H439.61V52.4614H433.81V56.7414H439.97V58.1214H432.23V45.5414ZM443.48 45.5414H448.18C449.5 45.5414 450.514 45.8548 451.22 46.4814C451.94 47.1081 452.3 47.8948 452.3 48.8414C452.3 49.5614 452.1 50.1881 451.7 50.7214C451.314 51.2548 450.72 51.6148 449.92 51.8014C450.707 51.9348 451.334 52.2748 451.8 52.8214C452.28 53.3681 452.52 53.9881 452.52 54.6814C452.52 56.2281 451.767 57.2748 450.26 57.8214C449.7 58.0214 449.014 58.1214 448.2 58.1214H443.48V45.5414ZM448.16 56.7414C449.12 56.7414 449.807 56.5481 450.22 56.1614C450.634 55.7748 450.84 55.2614 450.84 54.6214C450.84 53.9814 450.614 53.4748 450.16 53.1014C449.707 52.7148 449.04 52.5214 448.16 52.5214H445.06V56.7414H448.16ZM445.06 51.1614H448.14C448.914 51.1614 449.527 50.9748 449.98 50.6014C450.447 50.2148 450.68 49.6881 450.68 49.0214C450.68 48.3548 450.454 47.8348 450 47.4614C449.56 47.0881 448.94 46.9014 448.14 46.9014H445.06V51.1614Z" fill="black"/>
<rect y="0.619446" width="100.392" height="100.392" fill="#071E22"/>
<path d="M20.3642 54.2194H17.2842L17.0042 56.9994H15.5242L15.8042 54.2194H13.8242L13.9242 53.1394H15.9242L16.3042 49.5794H14.2842L14.4042 48.5194H16.4042L16.7042 45.7594H18.1842L17.8842 48.5194H20.9642L21.2642 45.7594H22.7242L22.4242 48.5194H24.4842L24.3642 49.5794H22.3242L21.9442 53.1394H24.0042L23.8842 54.2194H21.8242L21.5442 56.9994H20.0642L20.3642 54.2194ZM17.4042 53.1394H20.4642L20.8442 49.5794H17.7842L17.4042 53.1394ZM31.2633 44.8194C32.7833 44.8194 33.9833 45.3794 34.8633 46.4994C35.7433 47.6194 36.1833 49.2328 36.1833 51.3394C36.1833 53.4328 35.7433 55.0394 34.8633 56.1594C33.9833 57.2794 32.7833 57.8394 31.2633 57.8394C29.7433 57.8394 28.5366 57.2861 27.6433 56.1794C26.7633 55.0728 26.3233 53.4594 26.3233 51.3394C26.3233 49.2061 26.7633 47.5861 27.6433 46.4794C28.5366 45.3728 29.7433 44.8194 31.2633 44.8194ZM34.5433 51.3394C34.5433 49.6994 34.2633 48.4461 33.7033 47.5794C33.1433 46.6994 32.3233 46.2594 31.2433 46.2594C30.1766 46.2594 29.3633 46.6994 28.8033 47.5794C28.2433 48.4461 27.9633 49.6994 27.9633 51.3394C27.9633 52.9661 28.2433 54.2194 28.8033 55.0994C29.3633 55.9661 30.1766 56.3994 31.2433 56.3994C32.3233 56.3994 33.1433 55.9661 33.7033 55.0994C34.2633 54.2194 34.5433 52.9661 34.5433 51.3394ZM46.2183 45.0394V46.4994L40.4583 57.6194H38.3383L44.3783 46.5594H37.6583V45.0394H46.2183ZM47.5528 46.0194C48.4461 45.8994 49.2261 45.5594 49.8928 44.9994H51.1728V57.6194H49.6128V46.8794C48.9461 47.3061 48.2595 47.5394 47.5528 47.5794V46.0194ZM55.1939 45.0394H62.9339V46.3994H56.7739V50.6194H62.5739V51.9594H56.7739V56.2394H62.9339V57.6194H55.1939V45.0394ZM67.2844 56.1594H74.5844V57.6194H65.7044V55.7594C65.7044 54.2794 66.2644 53.1928 67.3844 52.4994C67.7444 52.2728 68.1444 52.0728 68.5844 51.8994L71.0644 50.8994C72.3444 50.3928 72.9844 49.5594 72.9844 48.3994C72.9844 47.7594 72.7644 47.2394 72.3244 46.8394C71.8844 46.4261 71.2644 46.2194 70.4644 46.2194C69.6777 46.2194 69.031 46.3861 68.5244 46.7194C68.031 47.0528 67.7444 47.5528 67.6644 48.2194H65.9244C65.991 47.1261 66.431 46.2861 67.2444 45.6994C68.0577 45.1128 69.0977 44.8194 70.3644 44.8194C71.6444 44.8194 72.6844 45.1661 73.4844 45.8594C74.2844 46.5528 74.6844 47.4128 74.6844 48.4394C74.6844 49.4528 74.4177 50.2594 73.8844 50.8594C73.3644 51.4594 72.6444 51.9394 71.7244 52.2994L69.1844 53.3194C68.5444 53.5861 68.0644 53.8928 67.7444 54.2394C67.4377 54.5728 67.2844 55.0128 67.2844 55.5594V56.1594ZM78.8859 56.1594H86.1859V57.6194H77.3059V55.7594C77.3059 54.2794 77.8659 53.1928 78.9859 52.4994C79.3459 52.2728 79.7459 52.0728 80.1859 51.8994L82.6659 50.8994C83.9459 50.3928 84.5859 49.5594 84.5859 48.3994C84.5859 47.7594 84.3659 47.2394 83.9259 46.8394C83.4859 46.4261 82.8659 46.2194 82.0659 46.2194C81.2793 46.2194 80.6326 46.3861 80.1259 46.7194C79.6326 47.0528 79.3459 47.5528 79.2659 48.2194H77.5259C77.5926 47.1261 78.0326 46.2861 78.8459 45.6994C79.6593 45.1128 80.6993 44.8194 81.9659 44.8194C83.2459 44.8194 84.2859 45.1661 85.0859 45.8594C85.8859 46.5528 86.2859 47.4128 86.2859 48.4394C86.2859 49.4528 86.0193 50.2594 85.4859 50.8594C84.9659 51.4594 84.2459 51.9394 83.3259 52.2994L80.7859 53.3194C80.1459 53.5861 79.6659 53.8928 79.3459 54.2394C79.0393 54.5728 78.8859 55.0128 78.8859 55.5594V56.1594Z" fill="white"/>
</svg>
