<svg width="740" height="127" viewBox="0 0 740 127" fill="none" xmlns="http://www.w3.org/2000/svg">
<path d="M358.629 8.76294C364.787 0.521134 369.773 8.76299 369.773 10.493C369.773 45.7432 369.773 43.9257 369.773 105.806C369.773 111.995 384.144 120.176 389.058 107.818M404.086 8.76294C429.894 8.76294 440.158 31.6079 440.158 43.9253C440.158 72.0793 421.096 82.0506 404.086 82.0506C384.188 82.0506 369.983 63.8217 369.773 43.9253C369.585 26.0276 378.278 8.76294 404.086 8.76294Z" stroke="black" stroke-width="5" stroke-linecap="round" stroke-linejoin="round"/>
<path d="M500.975 8.76294C507.134 0.521134 512.12 8.76299 512.12 10.493V42.7927M512.12 42.7927V43.9253M512.12 42.7927C512.116 43.1698 512.116 43.5474 512.12 43.9253M512.12 42.7927C512.306 25.3064 521.169 8.76294 546.432 8.76294C572.24 8.76294 582.505 31.6079 582.505 43.9253C582.505 72.0793 563.442 82.0506 546.432 82.0506C526.535 82.0506 512.33 63.8217 512.12 43.9253M512.12 43.9253V105.806C512.12 111.995 526.49 120.176 531.405 107.818" stroke="#FFC6BD" stroke-width="9" stroke-linecap="round" stroke-linejoin="round"/>
<path d="M509.849 8.76297C516.008 0.521165 520.994 8.76302 520.994 10.493V42.7927M520.994 42.7927V43.9253M520.994 42.7927C520.99 43.1699 520.99 43.5474 520.994 43.9253M520.994 42.7927C521.18 25.3064 530.043 8.76297 555.306 8.76297C581.114 8.76297 591.379 31.6079 591.379 43.9253C591.379 72.0794 572.316 82.0506 555.306 82.0506C535.409 82.0506 521.204 63.8217 520.994 43.9253M520.994 43.9253V105.806C520.994 111.995 535.364 120.176 540.279 107.818" stroke="#FFAB49" stroke-width="9" stroke-linecap="round" stroke-linejoin="round"/>
<path d="M4.55078 8.61699C10.46 0.709138 15.2438 8.61703 15.2438 10.2769V41.2679M15.2438 41.2679V42.3545M15.2438 41.2679C15.24 41.6297 15.24 41.992 15.2438 42.3545M15.2438 41.2679C15.4222 24.4901 23.9266 8.61699 48.166 8.61699C72.9281 8.61699 82.7767 30.5363 82.7767 42.3545C82.7767 69.3678 64.4865 78.935 48.166 78.935C29.0747 78.935 15.4451 61.4448 15.2438 42.3545M15.2438 42.3545V101.728C15.2438 107.666 29.0318 115.516 33.7474 103.658" stroke="#808080" stroke-width="9" stroke-linecap="round" stroke-linejoin="round"/>
<path opacity="0.5" d="M90.9597 11.5392C92.8412 3.16442 102.257 6.12312 102.257 11.5391C102.257 30.8398 102.257 54.5208 102.257 81.0549C102.257 82.8505 106.536 91.0409 112.161 82.8505M131.073 25.4187C140.203 28.8424 147.803 18.4611 142.2 13.4355C130.636 3.06339 106.251 15.1473 102.257 38.5432M154.562 50.0859C172.375 50.0859 167.593 51.928 190.418 50.0859C213.243 48.2437 222.019 37.1165 214.955 21.4243C211.47 13.6811 198.692 6.20193 182.144 8.58523C165.596 10.9685 144.768 25.4187 157.037 64.8621C160.862 77.1598 175.297 86.1904 195.839 82.8505C208.283 80.8274 213.008 76.8602 216.879 64.8621M222.019 11.5392C225.512 -0.544736 232.298 7.52496 232.298 11.5392C232.298 40.5403 232.298 76.2044 232.298 107.263C232.298 114.153 247.766 118.716 249.644 107.263M265.456 11.5391C287.425 11.5391 299.114 27.8292 297.696 47.1026C296.278 66.3759 289.789 81.0549 265.456 81.0549C234.071 81.0549 233.312 66.3212 232.298 45.5888C231.574 30.7954 233.786 11.5391 265.456 11.5391Z" stroke="black" stroke-width="8" stroke-linecap="round" stroke-linejoin="round"/>
<path fill-rule="evenodd" clip-rule="evenodd" d="M664.749 23.8829C664.749 23.8829 679.559 12.9021 697.412 16.1769C720.886 20.483 734.306 41.8448 729.948 64.0135C726.503 81.5409 715.103 93.6919 697.412 96.1628C676.389 99.0989 664.8 84.8591 664.8 84.8591C664.8 84.8591 664.735 100.569 664.735 112.366C664.735 112.592 665.641 114.949 668.683 114.663C670.124 114.528 670.711 113.448 671.363 112.246C672.253 110.607 673.266 108.741 676.741 108.741C680.441 108.741 682.792 110.546 682.792 114.663C682.792 119.09 680.141 121.929 676.495 124.439C668.671 129.824 652.878 122.805 652.878 114.949C652.878 74.9239 653.089 26.2731 653.089 26.2731C653.089 26.2731 650.507 27.8619 648.413 27.6035C644.91 27.1711 642.891 25.3891 642.598 21.8716C642.251 17.7146 645.871 15.0544 649.645 13.2757C656.677 9.96057 663.045 16.1792 663.854 18.9298C664.451 20.9615 664.749 23.8829 664.749 23.8829ZM693.725 27.8522C679.377 26.7949 664.641 36.9629 664.641 54.3047C664.641 71.6464 675.383 83.7926 694.195 83.7926C709.74 83.7926 719.705 69.373 719.004 54.3047C718.464 42.6959 708.073 28.9095 693.725 27.8522Z" fill="#F7F7F7"/>
<path fill-rule="evenodd" clip-rule="evenodd" d="M673.006 16.7171C673.006 16.7171 687.816 5.73631 705.668 9.01116C729.142 13.3172 742.563 34.679 738.205 56.8477C734.759 74.3751 723.359 86.5261 705.668 88.997C684.646 91.9332 673.056 77.6933 673.056 77.6933C673.056 77.6933 672.992 93.403 672.992 105.2C672.992 105.426 673.898 107.783 676.94 107.497C678.381 107.362 678.967 106.282 679.62 105.08C680.51 103.441 681.523 101.575 684.998 101.575C688.697 101.575 691.049 103.38 691.049 107.497C691.049 111.924 688.398 114.763 684.752 117.273C676.927 122.659 661.135 115.639 661.135 107.783C661.135 67.7581 661.345 19.1073 661.345 19.1073C661.345 19.1073 658.763 20.6962 656.67 20.4377C653.166 20.0053 651.147 18.2234 650.854 14.7059C650.508 10.5488 654.128 7.8886 657.901 6.10992C664.934 2.7948 671.302 9.0134 672.11 11.764C672.708 13.7957 673.006 16.7171 673.006 16.7171ZM701.981 20.6864C687.633 19.6291 672.897 29.7972 672.897 47.1389C672.897 64.4806 683.64 76.6268 702.452 76.6268C717.996 76.6268 727.962 62.2073 727.261 47.1389C726.721 35.5301 716.33 21.7437 701.981 20.6864Z" fill="#AFD2A0"/>
</svg>
